<?xml version="1.0" encoding="utf-8"?>
<!-- Generator: Adobe Illustrator 16.0.0, SVG Export Plug-In . SVG Version: 6.00 Build 0)  -->
<!DOCTYPE svg PUBLIC "-//W3C//DTD SVG 1.1//EN" "http://www.w3.org/Graphics/SVG/1.1/DTD/svg11.dtd">
<svg version="1.1" id="Layer_1" xmlns="http://www.w3.org/2000/svg" xmlns:xlink="http://www.w3.org/1999/xlink" x="0px" y="0px"
	 width="1030px" height="128px" viewBox="0 0 1030 128" enable-background="new 0 0 1030 128" xml:space="preserve">
<g>
	<defs>
		<rect id="SVGID_1_" x="-619" y="-532.55" width="2267.72" height="1190.55"/>
	</defs>
	<clipPath id="SVGID_2_">
		<use xlink:href="#SVGID_1_"  overflow="visible"/>
	</clipPath>
	<g clip-path="url(#SVGID_2_)">
		<defs>
			<rect id="SVGID_3_" x="-619" y="-532.55" width="2267.72" height="1190.55"/>
		</defs>
		<clipPath id="SVGID_4_">
			<use xlink:href="#SVGID_3_"  overflow="visible"/>
		</clipPath>
		<path clip-path="url(#SVGID_4_)" fill="#2C2623" d="M892.47,119.749c0.03-0.979,0.147-1.979,1.524-3.035l1.189-0.914
			c0.555-0.429,1.029-0.924,1.05-1.705c0.02-0.936-0.564-1.616-1.555-1.616c-1.03,0-1.535,0.802-1.545,1.693h-0.624
			c-0.021-1.155,0.732-2.376,2.208-2.376c1.437,0,2.268,1.066,2.219,2.299c-0.05,1.243-0.772,1.848-1.466,2.377l-1.159,0.88
			c-0.584,0.429-0.95,1.11-1.079,1.782h3.812v0.615H892.47z"/>
		<path clip-path="url(#SVGID_4_)" fill="#2C2623" d="M902.579,115.899c0,2.387-0.892,4.081-2.525,4.081s-2.505-1.694-2.505-4.081
			c0-2.365,0.871-4.061,2.505-4.061S902.579,113.534,902.579,115.899 M901.816,115.899c0-1.926-0.604-3.378-1.763-3.378
			c-1.139,0-1.753,1.452-1.753,3.378c0,1.947,0.614,3.399,1.753,3.399C901.213,119.299,901.816,117.847,901.816,115.899"/>
		<path clip-path="url(#SVGID_4_)" fill="#2C2623" d="M904.796,119.815v-5.83h-1.426v-0.595c0.386,0,0.723-0.11,1.089-0.385
			c0.268-0.22,0.476-0.605,0.495-1.013h0.505v7.822H904.796z"/>
		<path clip-path="url(#SVGID_4_)" fill="#2C2623" d="M911.202,112.764c-0.337,0.451-1.208,2.013-1.733,3.312
			c-0.564,1.396-0.931,2.903-0.931,3.772h-0.832c0.05-0.693,0.297-2.145,0.961-3.674c0.555-1.287,1.485-2.895,1.812-3.433h-3.883
			v-0.649h4.605V112.764z"/>
		<path clip-path="url(#SVGID_4_)" fill="#2C2623" d="M914.626,116.658c-1.029,0.044-2.397,0.044-2.466,0.044v-5.127h0.743v4.434
			c0.05,0,1.079,0.011,1.753-0.033c0.94-0.033,2.228-0.187,2.792-0.331v0.673C916.934,116.449,915.814,116.614,914.626,116.658
			 M913.15,120.608v-2.96h0.744v2.287h5.564v0.673H913.15z M918.498,118.165v-3.478h-2.684v-0.669h2.684v-1.057h-2.684v-0.672h2.684
			v-1.144h0.732v7.019H918.498z"/>
		<path clip-path="url(#SVGID_4_)" fill="#2C2623" d="M928.715,117.374c-0.05,1.705-1.169,2.65-2.327,2.65
			c-1.356,0-2.219-1.066-2.358-2.167h0.655c0.059,0.638,0.673,1.496,1.653,1.496c1.021,0,1.634-0.869,1.674-1.947
			c0.05-1.21-0.653-2.079-1.564-2.112c-0.872-0.033-1.367,0.462-1.614,0.858h-0.595l0.505-4.06h3.694v0.638l-3.14,0.011
			l-0.297,2.432c0.466-0.406,1.11-0.594,1.634-0.55C927.654,114.733,928.774,115.679,928.715,117.374"/>
		<path clip-path="url(#SVGID_4_)" fill="#2C2623" d="M932.556,115.36v1.507h-0.732v-1.496h-2.269v-0.638l3.357-0.022
			c1.02-0.022,2.822-0.187,3.258-0.286v0.66C935.517,115.206,933.615,115.36,932.556,115.36 M934.962,112.62
			c0,0.859-0.882,1.562-2.298,1.562s-2.307-0.693-2.307-1.562c0-0.847,0.901-1.595,2.307-1.595
			C934.08,111.025,934.962,111.764,934.962,112.62 M931.09,112.61c0,0.473,0.515,0.924,1.574,0.924c1.061,0,1.565-0.451,1.565-0.914
			c0-0.461-0.495-0.945-1.565-0.945C931.615,111.675,931.09,112.159,931.09,112.61 M931.12,120.718v-2.002h5.308v-0.737h-5.308
			v-0.649h6.109v2.002h-5.317v0.738h5.535v0.648H931.12z M936.517,116.867v-0.439h-2.347v-0.605h2.347v-4.676h0.743v5.721H936.517z"
			/>
		<path clip-path="url(#SVGID_4_)" fill="#2C2623" d="M943.435,119.815v-5.83h-1.426v-0.595c0.386,0,0.723-0.11,1.089-0.385
			c0.268-0.22,0.476-0.605,0.495-1.013h0.505v7.822H943.435z"/>
		<path clip-path="url(#SVGID_4_)" fill="#2C2623" d="M947.028,119.815v-5.83h-1.426v-0.595c0.386,0,0.723-0.11,1.089-0.385
			c0.268-0.22,0.476-0.605,0.495-1.013h0.505v7.822H947.028z"/>
		<path clip-path="url(#SVGID_4_)" fill="#2C2623" d="M954.138,113.677c0,1.299-1.021,2.233-2.317,2.233
			c-1.287,0-2.317-0.935-2.317-2.233c0-1.287,1.019-2.223,2.317-2.223C953.117,111.454,954.138,112.4,954.138,113.677
			 M951.82,112.181c-0.921,0-1.545,0.671-1.545,1.496s0.634,1.496,1.545,1.496c0.921,0,1.545-0.671,1.545-1.496
			C953.365,112.841,952.751,112.181,951.82,112.181 M950.869,120.718v-2.299h5.357v-1.045h-5.357v-0.628h6.12v2.3h-5.317v1.045
			h5.535v0.627H950.869z M956.247,111.146h0.731v5.115h-0.731V111.146z"/>
		<path clip-path="url(#SVGID_4_)" fill="#2C2623" d="M961.571,116.89v-0.683h3.98v-1.354h-2.792v-3.332h6.338v3.332h-2.793v1.354
			h3.981v0.683H961.571z M968.354,120.827v-2.101h-5.713v-0.683h6.457v2.783H968.354z M968.364,112.202h-4.872v1.97h4.872V112.202z"
			/>
		<path clip-path="url(#SVGID_4_)" fill="#2C2623" d="M970.679,119.64v-0.682h2.396v-2.168h0.763v2.168h2.426v-2.168h0.763v2.168
			h2.366v0.682H970.679z M975.036,116.57c-2.011,0-3.328-1.056-3.328-2.464c0-1.407,1.317-2.465,3.328-2.465
			c2.02,0,3.327,1.058,3.327,2.465C978.363,115.515,977.046,116.57,975.036,116.57 M975.036,112.346
			c-1.367,0-2.565,0.66-2.565,1.761c0,1.078,1.198,1.771,2.565,1.771c1.366,0,2.563-0.692,2.563-1.771
			C977.6,113.006,976.393,112.346,975.036,112.346"/>
		<path clip-path="url(#SVGID_4_)" fill="#2C2623" d="M984.927,113.677c0,1.299-1.021,2.233-2.317,2.233
			c-1.287,0-2.317-0.935-2.317-2.233c0-1.287,1.021-2.223,2.317-2.223S984.927,112.4,984.927,113.677 M982.609,112.181
			c-0.922,0-1.545,0.671-1.545,1.496s0.634,1.496,1.545,1.496c0.921,0,1.545-0.671,1.545-1.496
			C984.154,112.841,983.54,112.181,982.609,112.181 M981.658,120.718v-2.299h5.357v-1.045h-5.357v-0.628h6.12v2.3h-5.317v1.045
			h5.535v0.627H981.658z M987.036,111.146h0.731v5.115h-0.731V111.146z"/>
		<path clip-path="url(#SVGID_4_)" fill="#2C2623" d="M994.281,121.269c-0.684-1.156-1.713-2.916-1.713-5.293
			c0-2.365,1.029-4.158,1.713-5.312h0.871c-1.039,1.968-1.405,3.707-1.405,5.312c0,1.607,0.366,3.334,1.405,5.293H994.281z"/>
		<path clip-path="url(#SVGID_4_)" fill="#2C2623" d="M999.845,118.605v1.452h-1.039v-1.452h-3.169l0.01-1.298l3.138-5.336
			l1.061,0.011v5.589h0.94v1.034H999.845z M998.806,113.963l-0.06-0.021l-2.07,3.63h2.13V113.963z"/>
		<path clip-path="url(#SVGID_4_)" fill="#2C2623" d="M1002.785,120.014v-5.622l-1.506-0.011v-0.979
			c0.456,0,0.861-0.132,1.209-0.406c0.236-0.198,0.484-0.605,0.505-1.013h0.832l0.01,8.031H1002.785z"/>
		<path clip-path="url(#SVGID_4_)" fill="#2C2623" d="M1010.062,117.736c0,1.397-1.04,2.476-2.495,2.476
			c-1.406,0-2.466-1.165-2.446-2.597h1.01c0,0.759,0.516,1.519,1.427,1.519c0.842,0,1.347-0.639,1.356-1.408
			c0.01-0.616-0.406-1.067-0.882-1.232c-0.336-0.1-0.653-0.109-0.97-0.109v-1.023c0.355,0,0.723-0.045,0.97-0.176
			c0.427-0.231,0.684-0.605,0.684-1.145c0.01-0.605-0.406-1.211-1.169-1.211c-0.871,0-1.237,0.683-1.237,1.343h-1
			c-0.04-1.441,1.01-2.375,2.248-2.375c1.247,0,2.268,1.065,2.268,2.222c0,0.935-0.456,1.506-0.911,1.771
			C1009.627,116.251,1010.062,116.955,1010.062,117.736"/>
		<path clip-path="url(#SVGID_4_)" fill="#2C2623" d="M1015.616,117.472c0,1.529-1.04,2.729-2.407,2.729
			c-1.337,0-2.119-0.991-2.456-2.168c-0.307-1.067-0.276-3.08,0.109-4.235c0.406-1.221,1.198-2.002,2.396-2.002
			c1.259,0,2.18,1.155,2.309,2.288h-1c-0.08-0.517-0.535-1.255-1.317-1.255c-0.832,0-1.159,0.672-1.347,1.211
			c-0.188,0.518-0.218,1.023-0.208,1.363c0.426-0.45,0.94-0.702,1.684-0.682C1014.694,114.767,1015.616,115.987,1015.616,117.472
			 M1014.486,117.472c0-0.957-0.534-1.649-1.337-1.649c-0.782,0-1.308,0.692-1.308,1.649c0,0.98,0.525,1.662,1.308,1.662
			C1013.952,119.134,1014.486,118.452,1014.486,117.472"/>
		<path clip-path="url(#SVGID_4_)" fill="#2C2623" d="M1015.98,120.047v-1.111h3.743v-0.946c-1.456-0.121-2.456-0.715-2.456-1.672
			c0-1.078,1.308-1.694,3.07-1.694s3.069,0.638,3.069,1.694c0,0.957-1,1.551-2.456,1.672v0.946h3.744v1.111H1015.98z
			 M1016.644,113.094h7.368v1.089h-7.368V113.094z M1018.367,111.3h3.9v1.078h-3.9V111.3z M1020.338,115.603
			c-0.882,0-1.772,0.252-1.772,0.715c0,0.462,0.891,0.715,1.772,0.715c0.881,0,1.763-0.253,1.763-0.715
			C1022.101,115.854,1021.219,115.603,1020.338,115.603"/>
		<path clip-path="url(#SVGID_4_)" fill="#2C2623" d="M1027.763,115.976c0,2.377-1.021,4.137-1.714,5.293h-0.871
			c1.03-1.959,1.416-3.686,1.416-5.293c0-1.604-0.396-3.354-1.416-5.312h0.871C1026.741,111.817,1027.763,113.61,1027.763,115.976"
			/>
		<rect x="0.5" y="9.983" clip-path="url(#SVGID_4_)" fill="#FFFFFF" width="184.3" height="72.25"/>
		<polyline clip-path="url(#SVGID_4_)" fill="none" stroke="#AB2451" stroke-width="0.993" points="73.002,10.913 183.765,10.913 
			183.765,81.687 0.996,81.687 0.996,34.206 		"/>
		<path clip-path="url(#SVGID_4_)" fill="#AB2451" d="M8.884,19.819H1.147v-8.023h1.768v2.511h4.221v-2.511h1.748V19.819z
			 M13.656,28.118H2.855v-6.847h1.768v1.844h7.266v-1.844h1.767V28.118z M2.915,18.23h4.222v-2.335H2.915V18.23z M4.623,26.489
			h7.266v-1.765H4.623V26.489z M15.875,16.759h-2.219v3.55h-1.767V11.05h1.767v4.061h2.219V16.759z"/>
		<rect x="19.26" y="18.491" clip-path="url(#SVGID_4_)" fill="#AB2451" width="2.122" height="2.354"/>
		<path clip-path="url(#SVGID_4_)" fill="#AB2451" d="M32.895,18.486c-0.844,0.745-1.816,1.118-2.916,1.118
			c-1.086,0-2.055-0.369-2.906-1.109c-0.851-0.738-1.276-1.709-1.276-2.913c0-1.203,0.419-2.171,1.257-2.903
			c0.838-0.733,1.813-1.099,2.925-1.099c1.1,0,2.072,0.366,2.916,1.099c0.845,0.732,1.267,1.7,1.267,2.903
			C34.162,16.773,33.74,17.74,32.895,18.486 M31.648,13.944c-0.484-0.438-1.04-0.657-1.669-0.657c-0.628,0-1.188,0.222-1.679,0.667
			c-0.49,0.445-0.736,0.975-0.736,1.589c0,0.641,0.246,1.187,0.736,1.638c0.491,0.452,1.051,0.677,1.679,0.677
			c0.629,0,1.185-0.225,1.669-0.677c0.485-0.451,0.727-0.997,0.727-1.638C32.375,14.915,32.133,14.382,31.648,13.944 M28.075,28.118
			v-4.336h9.269v-1.334h-9.269v-1.53h11.213v4.335h-9.249v1.335h9.681v1.53H28.075z M39.307,20.153h-1.768v-9.102h1.768V20.153z"/>
		<rect x="45.063" y="18.491" clip-path="url(#SVGID_4_)" fill="#AB2451" width="2.122" height="2.354"/>
		<path clip-path="url(#SVGID_4_)" fill="#AB2451" d="M61.219,19.246v2.511h4.87v6.337H54.483v-6.337h4.85v-2.511H52.5v-1.668h4.615
			c0.104-0.418,0.228-1.033,0.372-1.844c0.144-0.81,0.256-1.595,0.335-2.354h-3.731v-1.647h5.773
			c-0.079,1.033-0.207,2.112-0.383,3.237c-0.177,1.124-0.37,1.994-0.58,2.608h4.91c0.065-0.405,0.16-1.006,0.285-1.804
			c0.124-0.798,0.226-1.596,0.304-2.394h-3.928v-1.647h5.931c-0.052,0.653-0.154,1.605-0.304,2.854
			c-0.151,1.249-0.325,2.246-0.521,2.991h2.475v1.668H61.219 M64.341,23.405h-8.11v3.041h8.11V23.405z"/>
		<path clip-path="url(#SVGID_4_)" fill="#2C2623" d="M19.079,55.707H12.26v-0.75h3.003v-1.499h-2.074v-4.161h0.778v1.357h3.414
			v-1.357h0.786v4.161h-2.1v1.499h3.012V55.707z M13.967,52.707h3.415v-1.303h-3.415V52.707z"/>
		<path clip-path="url(#SVGID_4_)" fill="#2C2623" d="M23.064,53.742v2.946h-0.803v-2.946h-3.012v-0.75h6.827v0.75H23.064
			 M21.639,51.55c-0.503,0.325-1.012,0.555-1.523,0.692l-0.474-0.616c1.084-0.232,1.79-0.618,2.118-1.161
			c0.327-0.54,0.491-0.951,0.491-1.231v-0.402h0.823v0.402c0,0.28,0.153,0.678,0.46,1.196c0.307,0.517,1.023,0.917,2.149,1.196
			l-0.474,0.616c-0.416-0.059-0.897-0.268-1.442-0.625c-0.546-0.357-0.917-0.774-1.114-1.25
			C22.481,50.831,22.142,51.227,21.639,51.55"/>
		<path clip-path="url(#SVGID_4_)" fill="#2C2623" d="M31.134,55.171c-0.238,0.03-0.639,0.066-1.202,0.111
			c-0.563,0.045-1.181,0.068-1.854,0.068h-1.779v-0.76h1.966v-1.535c-0.47-0.083-0.85-0.301-1.139-0.652
			c-0.289-0.351-0.434-0.762-0.434-1.232c0-0.529,0.182-0.982,0.545-1.357c0.364-0.375,0.835-0.562,1.413-0.562
			c0.571,0,1.041,0.204,1.407,0.611c0.367,0.409,0.55,0.846,0.55,1.317c0,0.459-0.143,0.862-0.429,1.214s-0.658,0.572-1.117,0.661
			v1.5c0.214,0,0.539-0.018,0.974-0.054s0.801-0.074,1.099-0.116V55.171 M29.829,51.171c0-0.315-0.102-0.588-0.308-0.817
			c-0.205-0.229-0.496-0.344-0.871-0.344c-0.382,0-0.672,0.115-0.871,0.344c-0.2,0.229-0.3,0.502-0.3,0.817s0.101,0.588,0.304,0.817
			s0.494,0.343,0.876,0.343c0.375,0,0.664-0.114,0.867-0.343C29.728,51.759,29.829,51.486,29.829,51.171 M31.447,48.832h0.778v3.286
			h1.009v0.803h-1.009v3.768h-0.778V48.832z"/>
		<path clip-path="url(#SVGID_4_)" fill="#2C2623" d="M40.61,53.331c-0.334-0.136-0.655-0.352-0.961-0.647
			c-0.307-0.294-0.562-0.605-0.764-0.933c-0.084,0.328-0.306,0.667-0.666,1.017c-0.361,0.352-0.729,0.622-1.104,0.813l-0.581-0.669
			c0.656-0.299,1.143-0.674,1.462-1.13c0.318-0.455,0.478-0.954,0.478-1.495v-0.223h-1.439v-0.75h3.718v0.75h-1.439v0.223
			c0,0.511,0.156,0.97,0.469,1.375c0.313,0.404,0.743,0.726,1.292,0.964L40.61,53.331 M37.866,56.51v-2.509h0.787v1.759h4.263v0.75
			H37.866z M42.763,54.518h-0.777v-5.687h0.777V54.518z"/>
		<path clip-path="url(#SVGID_4_)" fill="#2C2623" d="M50.14,55.707h-6.819v-0.75h3.003v-1.499H44.25v-4.161h0.778v1.357h3.414
			v-1.357h0.786v4.161h-2.1v1.499h3.012V55.707z M45.028,52.707h3.414v-1.303h-3.414V52.707z"/>
		<path clip-path="url(#SVGID_4_)" fill="#2C2623" d="M57.138,53.154H50.31v-0.679h6.828V53.154z M51.195,51.912v-1.758h4.147v-0.5
			h-4.147v-0.652h4.987v1.749h-4.156v0.51h4.308v0.651H51.195z M56.334,56.591h-5.139v-1.759h4.156v-0.5h-4.156V53.68h4.987v1.751
			h-4.156v0.508h4.308V56.591z"/>
		<path clip-path="url(#SVGID_4_)" fill="#2C2623" d="M65.095,52.527c-0.227,0.055-0.563,0.114-1.01,0.18
			c-0.447,0.064-0.93,0.103-1.448,0.116l-1.689,0.017v-3.678h0.769v2.928l0.929-0.018c0.459-0.012,0.915-0.045,1.367-0.102
			c0.453-0.057,0.814-0.115,1.082-0.174V52.527 M66.569,56.599h-4.87v-2.947h4.87V56.599z M62.467,55.849h3.325v-1.446h-3.325
			V55.849z M66.587,53.251H65.81v-2.384h-2.038v-0.75h2.038v-1.285h0.777V53.251z"/>
		<path clip-path="url(#SVGID_4_)" fill="#2C2623" d="M73.544,56.688h-0.777v-4.045h-1.332c-0.041,0.786-0.226,1.413-0.554,1.88
			c-0.328,0.468-0.759,0.7-1.295,0.7c-0.56,0-1.009-0.262-1.345-0.789c-0.337-0.527-0.505-1.231-0.505-2.112
			c0-0.887,0.168-1.592,0.505-2.116c0.336-0.523,0.785-0.786,1.345-0.786c0.512,0,0.931,0.217,1.255,0.652
			c0.325,0.435,0.517,1.024,0.577,1.768h1.349v-3.009h0.777V56.688 M70.676,52.313c0-0.565-0.094-1.058-0.282-1.477
			c-0.187-0.42-0.454-0.63-0.8-0.63c-0.345,0-0.614,0.212-0.804,0.634c-0.191,0.423-0.286,0.914-0.286,1.473
			c0,0.572,0.095,1.068,0.286,1.487c0.19,0.42,0.459,0.629,0.804,0.629c0.346,0,0.613-0.209,0.8-0.629
			C70.582,53.381,70.676,52.885,70.676,52.313"/>
		<path clip-path="url(#SVGID_4_)" fill="#2C2623" d="M15.072,67.651c-0.337,0.045-0.654,0.072-0.951,0.084l-1.225,0.019v-5.259
			h0.769v4.445l0.741-0.017c0.191-0.006,0.431-0.029,0.72-0.07c0.289-0.044,0.502-0.079,0.639-0.108v0.804
			C15.639,67.571,15.409,67.606,15.072,67.651 M17.829,69.584v-4.062h-0.884v3.706h-0.751v-7.322h0.751v2.822h0.884v-3.001h0.751
			v7.857H17.829z"/>
		<path clip-path="url(#SVGID_4_)" fill="#2C2623" d="M25.851,65.11c-0.373,0.34-0.8,0.51-1.283,0.51
			c-0.476,0-0.902-0.17-1.278-0.504c-0.375-0.338-0.563-0.779-0.563-1.326s0.185-0.988,0.555-1.321c0.369-0.334,0.798-0.5,1.286-0.5
			c0.483,0,0.91,0.166,1.283,0.5c0.372,0.333,0.558,0.774,0.558,1.321C26.409,64.332,26.223,64.772,25.851,65.11 M25.301,63.044
			c-0.214-0.198-0.459-0.299-0.733-0.299s-0.518,0.101-0.732,0.304c-0.215,0.202-0.322,0.444-0.322,0.723
			c0,0.291,0.107,0.54,0.322,0.745c0.214,0.207,0.458,0.308,0.732,0.308s0.519-0.101,0.733-0.308
			c0.215-0.205,0.322-0.454,0.322-0.745C25.623,63.487,25.516,63.244,25.301,63.044 M23.729,69.495v-1.974h4.075v-0.607h-4.075
			V66.22h4.933v1.971h-4.058v0.607h4.245v0.697H23.729z M28.671,65.87h-0.778v-4.143h0.778V65.87z"/>
		<path clip-path="url(#SVGID_4_)" fill="#2C2623" d="M36.171,65.735h-6.828v-0.687h6.828V65.735z M32.757,61.665
			c0.864,0,1.517,0.139,1.958,0.415c0.441,0.277,0.661,0.615,0.661,1.013c0,0.418-0.22,0.76-0.661,1.027
			c-0.441,0.27-1.094,0.402-1.958,0.402c-0.857,0-1.51-0.132-1.956-0.397c-0.447-0.265-0.671-0.605-0.671-1.022
			c0-0.411,0.224-0.754,0.671-1.027C31.247,61.803,31.9,61.665,32.757,61.665 M35.457,69.495h-5.229v-1.938h4.227v-0.57h-4.227
			v-0.67h5.058v1.892h-4.235v0.608h4.406V69.495z M34.5,63.103c0-0.221-0.156-0.403-0.469-0.549
			c-0.313-0.147-0.74-0.219-1.282-0.219c-0.554,0-0.984,0.071-1.287,0.214c-0.304,0.143-0.456,0.325-0.456,0.544
			c0,0.221,0.158,0.405,0.473,0.554c0.316,0.15,0.748,0.223,1.296,0.223c0.537,0,0.958-0.073,1.265-0.223
			C34.347,63.498,34.5,63.317,34.5,63.103"/>
		<path clip-path="url(#SVGID_4_)" fill="#2C2623" d="M43.872,64.325h-4.263v-0.768h4.263V64.325z M43.631,66.683
			c0,0.465-0.174,0.887-0.523,1.264c-0.348,0.377-0.8,0.566-1.354,0.566c-0.56,0-1.016-0.186-1.367-0.558
			c-0.352-0.372-0.528-0.796-0.528-1.272c0-0.482,0.176-0.902,0.528-1.263c0.351-0.359,0.81-0.541,1.376-0.541
			c0.548,0,0.997,0.182,1.345,0.536C43.457,65.772,43.631,66.194,43.631,66.683 M42.871,62.862h-2.252v-0.75h2.252V62.862z
			 M42.835,66.692c0-0.287-0.093-0.535-0.281-0.746c-0.188-0.211-0.451-0.317-0.791-0.317c-0.345,0-0.612,0.108-0.8,0.321
			c-0.187,0.215-0.281,0.462-0.281,0.742c0,0.273,0.094,0.518,0.281,0.731c0.188,0.214,0.455,0.322,0.8,0.322
			c0.34,0,0.604-0.108,0.791-0.322C42.742,67.21,42.835,66.966,42.835,66.692 M44.623,61.728H45.4v3.187h1.028v0.813H45.4v3.856
			h-0.777V61.728z"/>
		<path clip-path="url(#SVGID_4_)" fill="#2C2623" d="M50.324,63.815h1.465v-2.088h0.778v7.857h-0.778v-3.036h-1.465v1.357H47.08
			v-5.222h3.244V63.815z M47.857,67.155h1.689v-3.723h-1.689V67.155z M50.324,65.798h1.465v-1.232h-1.465V65.798z"/>
		<path clip-path="url(#SVGID_4_)" fill="#2C2623" d="M59.335,67.651c-0.337,0.045-0.654,0.072-0.952,0.084l-1.224,0.019v-5.259
			h0.768v4.445l0.742-0.017c0.191-0.006,0.431-0.029,0.72-0.07c0.289-0.044,0.502-0.079,0.639-0.108v0.804
			C59.902,67.571,59.672,67.606,59.335,67.651 M62.092,69.584v-4.062h-0.884v3.706h-0.751v-7.322h0.751v2.822h0.884v-3.001h0.751
			v7.857H62.092z"/>
		<path clip-path="url(#SVGID_4_)" fill="#2C2623" d="M67.007,65.11c-0.373,0.34-0.8,0.51-1.283,0.51
			c-0.476,0-0.903-0.17-1.278-0.504c-0.375-0.338-0.563-0.779-0.563-1.326s0.185-0.988,0.554-1.321c0.37-0.334,0.799-0.5,1.287-0.5
			c0.483,0,0.91,0.166,1.283,0.5c0.372,0.333,0.558,0.774,0.558,1.321C67.565,64.332,67.379,64.772,67.007,65.11 M66.457,63.044
			c-0.214-0.198-0.459-0.299-0.733-0.299s-0.519,0.101-0.733,0.304c-0.214,0.202-0.321,0.444-0.321,0.723
			c0,0.291,0.107,0.54,0.321,0.745c0.214,0.207,0.459,0.308,0.733,0.308s0.519-0.101,0.733-0.308
			c0.214-0.205,0.322-0.454,0.322-0.745C66.779,63.487,66.671,63.244,66.457,63.044 M64.884,69.495v-1.974h4.075v-0.607h-4.075
			V66.22h4.933v1.971H65.76v0.607h4.245v0.697H64.884z M69.826,65.87h-0.777v-4.143h0.777V65.87z"/>
		<path clip-path="url(#SVGID_4_)" fill="#2C2623" d="M77.328,65.735H70.5v-0.687h6.828V65.735z M73.914,61.665
			c0.864,0,1.517,0.139,1.957,0.415c0.441,0.277,0.662,0.615,0.662,1.013c0,0.418-0.221,0.76-0.662,1.027
			c-0.44,0.27-1.093,0.402-1.957,0.402c-0.858,0-1.51-0.132-1.957-0.397c-0.447-0.265-0.67-0.605-0.67-1.022
			c0-0.411,0.223-0.754,0.67-1.027C72.404,61.803,73.056,61.665,73.914,61.665 M76.613,69.495h-5.228v-1.938h4.227v-0.57h-4.227
			v-0.67h5.058v1.892h-4.236v0.608h4.406V69.495z M75.657,63.103c0-0.221-0.157-0.403-0.469-0.549
			c-0.313-0.147-0.741-0.219-1.283-0.219c-0.554,0-0.983,0.071-1.287,0.214c-0.304,0.143-0.455,0.325-0.455,0.544
			c0,0.221,0.158,0.405,0.473,0.554c0.316,0.15,0.748,0.223,1.296,0.223c0.536,0,0.958-0.073,1.264-0.223
			C75.503,63.498,75.657,63.317,75.657,63.103"/>
		<path clip-path="url(#SVGID_4_)" fill="#2C2623" d="M84.867,68.021c-0.304-0.226-0.638-0.55-1.002-0.968
			c-0.363-0.421-0.595-0.832-0.696-1.236c-0.143,0.523-0.393,0.995-0.747,1.418c-0.354,0.422-0.707,0.766-1.059,1.027l-0.643-0.607
			c0.786-0.512,1.319-1.1,1.599-1.764c0.28-0.663,0.421-1.318,0.421-1.968v-0.59h-1.547v-0.776h3.968v0.776h-1.554v0.59
			c0,0.63,0.133,1.251,0.402,1.86c0.268,0.612,0.729,1.127,1.385,1.551L84.867,68.021 M87.011,69.584h-0.777v-7.857h0.777V69.584z"
			/>
		<path clip-path="url(#SVGID_4_)" fill="#2C2623" d="M92.049,63.59h-4.325v-0.705h4.325V63.59z M89.887,66.422
			c-0.543,0-0.991-0.118-1.345-0.358c-0.355-0.236-0.532-0.531-0.532-0.883c0-0.351,0.177-0.642,0.532-0.875
			c0.354-0.232,0.809-0.348,1.363-0.348c0.566,0,1.018,0.114,1.358,0.343c0.339,0.229,0.509,0.521,0.509,0.871
			c0,0.356-0.171,0.655-0.514,0.892C90.916,66.304,90.459,66.422,89.887,66.422 M91.093,69.726c-0.84,0-1.481-0.142-1.921-0.425
			c-0.441-0.282-0.662-0.633-0.662-1.049c0-0.423,0.222-0.769,0.666-1.036c0.444-0.268,1.086-0.402,1.926-0.402
			c0.852,0,1.494,0.139,1.926,0.412c0.432,0.274,0.648,0.621,0.648,1.045c0,0.422-0.218,0.771-0.652,1.045
			C92.588,69.588,91.946,69.726,91.093,69.726 M91.031,62.387h-2.279v-0.706h2.279V62.387z M90.968,65.172
			c0-0.185-0.097-0.332-0.29-0.438c-0.194-0.106-0.452-0.16-0.773-0.16c-0.328,0-0.59,0.054-0.787,0.16
			c-0.197,0.107-0.295,0.256-0.295,0.447c0,0.184,0.097,0.328,0.291,0.434c0.193,0.104,0.457,0.156,0.791,0.156
			c0.321,0,0.579-0.054,0.773-0.162C90.871,65.503,90.968,65.356,90.968,65.172 M92.81,68.261c0-0.25-0.157-0.441-0.47-0.576
			c-0.313-0.134-0.728-0.201-1.247-0.201c-0.524,0-0.943,0.066-1.256,0.197c-0.312,0.131-0.468,0.321-0.468,0.571
			c0,0.237,0.157,0.431,0.473,0.576c0.315,0.146,0.736,0.218,1.26,0.218c0.506,0,0.917-0.07,1.233-0.214
			C92.652,68.688,92.81,68.5,92.81,68.261 M94.462,65.271h-0.965v1.375h-0.768v-4.929h0.768v1.153h0.965v0.721h-0.965v0.948h0.965
			V65.271z"/>
		<path clip-path="url(#SVGID_4_)" fill="#2C2623" d="M99.131,63.664h-4.325v-0.714h4.325V63.664z M96.96,66.788
			c-0.561,0-1.01-0.137-1.35-0.411c-0.339-0.274-0.509-0.588-0.509-0.946c0-0.381,0.17-0.699,0.509-0.955
			c0.34-0.256,0.792-0.385,1.359-0.385c0.589,0,1.048,0.129,1.376,0.385c0.328,0.256,0.491,0.574,0.491,0.955
			c0,0.364-0.164,0.68-0.495,0.95C98.01,66.653,97.55,66.788,96.96,66.788 M100.775,69.396h-4.977v-2.17h0.823v1.428h4.154V69.396z
			 M98.103,62.387h-2.279v-0.706h2.279V62.387z M97.997,65.422c0-0.202-0.087-0.368-0.259-0.5c-0.174-0.131-0.427-0.197-0.761-0.197
			c-0.333,0-0.588,0.066-0.764,0.197c-0.175,0.131-0.263,0.297-0.263,0.5c0,0.196,0.086,0.358,0.259,0.487
			c0.173,0.128,0.429,0.191,0.768,0.191c0.334,0,0.587-0.062,0.761-0.188C97.91,65.789,97.997,65.624,97.997,65.422 M101.545,64.815
			h-0.975v2.723h-0.769v-5.821h0.769v2.321h0.975V64.815z"/>
		<path clip-path="url(#SVGID_4_)" fill="#2C2623" d="M105.231,67.692c-0.447,0.06-0.935,0.092-1.466,0.098
			c-0.423,0.012-0.992,0.018-1.707,0.018v-5.187h3.344v0.759h-2.565v3.661c0.523,0,0.934-0.004,1.232-0.011
			c0.352-0.01,0.745-0.041,1.18-0.088s0.703-0.084,0.804-0.107v0.74C105.952,67.595,105.678,67.633,105.231,67.692 M107.367,61.728
			v3.143h1.028v0.784h-1.028v3.93h-0.778v-7.857H107.367z"/>
		<path clip-path="url(#SVGID_4_)" fill="#AB2451" d="M132.939,41.193c-2.554,2.115-4.686,4.459-6.225,6.945
			c-2.159,3.482-2.499,6.857-2.499,6.857c-0.529,4.72,0.883,9.115,4.527,12.218c4.372,3.718,10.958,4.752,17.938,3.367
			c6.902-1.371,13.933-5.067,19.344-10.583c2.488-2.535,4.38-5.212,5.705-7.885c-0.783,1.014-1.655,2.016-2.623,2.996
			c-5.231,5.296-12.083,8.831-18.844,10.126c-6.838,1.314-13.329,0.296-17.695-3.296c-2.212-1.82-3.627-4.104-4.296-6.64
			c0,0-1.992-5.893,3.905-13.211L132.939,41.193"/>
		<path clip-path="url(#SVGID_4_)" fill="#AB2451" d="M165.594,51.837c2.552-2.115,4.682-4.457,6.223-6.947
			c2.155-3.48,2.497-6.853,2.497-6.853c0.529-4.721-0.881-9.115-4.526-12.216c-4.373-3.721-10.959-4.758-17.937-3.371
			c-6.904,1.373-13.937,5.067-19.344,10.584c-2.488,2.534-4.384,5.214-5.707,7.884c0.783-1.013,1.655-2.016,2.623-2.997
			c5.231-5.294,12.081-8.829,18.846-10.125c6.834-1.312,13.329-0.295,17.695,3.296c2.209,1.821,3.625,4.103,4.296,6.642
			c0,0,1.99,5.891-3.906,13.21L165.594,51.837"/>
		<path clip-path="url(#SVGID_4_)" fill="#AB2451" d="M160.518,54.317c-3.405,0.542-2.1-3.608-2.1-3.608l2.112-7.282
			c1.292-4.741-1.986-6.111-1.986-6.111c-6.629-3.166-11.377,4.712-12.604,7.034l0.57-1.996c0.869-3.588-2.232-4.667-2.232-4.667
			c-5.313-1.873-11.339,3.506-11.339,3.506c2.013-1.731,5.037-2.445,5.037-2.445c3.406-0.543,2.099,3.606,2.099,3.606l-3.843,13.425
			h6.438l2.466-8.625c3.862-7.715,7.568-7.856,7.568-7.856c2.763,0.03,1.387,4.129,1.387,4.129l-2.11,7.282
			c-0.867,3.584,2.234,4.663,2.234,4.663c5.31,1.876,11.341-3.504,11.341-3.504C163.537,53.6,160.518,54.317,160.518,54.317"/>
		<rect x="0.5" y="103.833" clip-path="url(#SVGID_4_)" fill="#FFFFFF" width="206.75" height="11.9"/>
		<path clip-path="url(#SVGID_4_)" fill="#2C2623" d="M2.876,117.758l-1.482,0.009v-5.599h2.984v1.036H2.496v3.527h0.837
			c0.599-0.01,1.292-0.076,1.568-0.115v1.009C4.635,117.663,4.036,117.748,2.876,117.758 M7.373,119.563v-4.268H6.441v3.888H5.376
			v-7.796h1.065v2.853h0.932v-3.042h1.064v8.365H7.373z"/>
		<path clip-path="url(#SVGID_4_)" fill="#2C2623" d="M9.43,118.671v-0.961h2.291v-1.645h-1.578v-0.951h1.359l-0.161-1.986h1.131
			l0.133,1.986h2.015l0.143-1.986h1.112l-0.152,1.986h1.35v0.951h-1.511v1.645h2.233v0.961H9.43z M10.352,111.845h6.521v0.96h-6.521
			V111.845z M14.458,116.065h-1.635v1.645h1.635V116.065z"/>
		<path clip-path="url(#SVGID_4_)" fill="#2C2623" d="M18.978,112.653v-0.979h4.393v0.979h-1.617v0.123
			c0,0.675,0.305,1.227,0.77,1.616c0.485,0.399,0.799,0.561,1.265,0.713l-0.666,0.855c-0.323-0.114-0.608-0.247-1.074-0.58
			c-0.352-0.257-0.618-0.522-0.875-0.817c-0.18,0.323-0.465,0.646-0.864,0.96c-0.447,0.353-0.866,0.552-1.179,0.704l-0.789-0.828
			c0.475-0.199,0.969-0.475,1.511-0.94c0.447-0.39,0.732-0.998,0.732-1.683v-0.123H18.978z M19.957,119.374v-2.729h1.103v1.768h5.2
			v0.961H19.957z M24.977,117.244v-3.128h-1.673v-1.008h1.673v-1.91h1.103v6.046H24.977z"/>
		<path clip-path="url(#SVGID_4_)" fill="#2C2623" d="M28.831,118.348h-1.854v-0.979h2.367v-0.646
			c-0.951-0.153-1.645-0.677-1.645-1.342c0-0.778,0.961-1.388,2.197-1.388c1.33,0,2.195,0.617,2.195,1.388
			c0,0.638-0.656,1.16-1.559,1.312v0.637c0.305,0,1.692-0.094,2.32-0.18v0.979C32.071,118.225,30.522,118.348,28.831,118.348
			 M27.347,112.776h5.038v0.922h-5.038V112.776z M28.517,111.407h2.681v0.895h-2.681V111.407z M29.896,114.82
			c-0.59,0-1.065,0.238-1.065,0.561c0,0.323,0.475,0.532,1.065,0.532c0.608,0,1.092-0.209,1.092-0.532
			C30.987,115.059,30.542,114.82,29.896,114.82 M34.296,115.581v3.982h-1.103v-8.365h1.103v3.394h1.198v0.989H34.296z"/>
		<path clip-path="url(#SVGID_4_)" fill="#2C2623" d="M43.927,115.306c0,2.063-0.856,3.526-2.424,3.526s-2.405-1.463-2.405-3.526
			c0-2.045,0.837-3.508,2.405-3.508S43.927,113.261,43.927,115.306 M43.195,115.306c0-1.664-0.58-2.919-1.692-2.919
			c-1.093,0-1.683,1.255-1.683,2.919c0,1.682,0.59,2.938,1.683,2.938C42.615,118.243,43.195,116.987,43.195,115.306"/>
		<path clip-path="url(#SVGID_4_)" fill="#2C2623" d="M44.589,118.632c0.028-0.846,0.143-1.711,1.464-2.623l1.141-0.789
			c0.532-0.371,0.988-0.799,1.007-1.474c0.019-0.808-0.542-1.397-1.492-1.397c-0.989,0-1.474,0.693-1.483,1.464h-0.599
			c-0.019-0.998,0.704-2.054,2.12-2.054c1.378,0,2.177,0.922,2.129,1.987c-0.047,1.074-0.741,1.597-1.407,2.054l-1.112,0.76
			c-0.56,0.371-0.913,0.961-1.036,1.54h3.66v0.532H44.589z"/>
		<rect x="49.33" y="115.2" clip-path="url(#SVGID_4_)" fill="#2C2623" width="5.599" height="0.59"/>
		<path clip-path="url(#SVGID_4_)" fill="#2C2623" d="M59.868,116.835c-0.01,1.17-0.941,2.045-2.32,2.045
			c-1.349,0-2.319-0.971-2.3-2.13h0.618c0,0.731,0.561,1.54,1.701,1.54c0.932,0,1.588-0.637,1.588-1.464
			c0-0.722-0.618-1.208-1.112-1.312c-0.342-0.058-0.666-0.066-0.942-0.066v-0.562c0.286,0,0.638,0.01,0.942-0.085
			c0.541-0.191,0.893-0.6,0.903-1.217c0.019-0.704-0.561-1.256-1.417-1.256c-0.998,0-1.435,0.666-1.435,1.322h-0.618
			c-0.038-1.037,0.827-1.893,2.082-1.893c1.131,0,2.072,0.837,2.063,1.816c0,0.855-0.523,1.34-0.97,1.539
			C59.345,115.467,59.877,116.075,59.868,116.835"/>
		<path clip-path="url(#SVGID_4_)" fill="#2C2623" d="M60.388,118.632c0.028-0.846,0.143-1.711,1.464-2.623l1.14-0.789
			c0.533-0.371,0.989-0.799,1.008-1.474c0.019-0.808-0.542-1.397-1.492-1.397c-0.989,0-1.474,0.693-1.483,1.464h-0.599
			c-0.019-0.998,0.704-2.054,2.12-2.054c1.378,0,2.177,0.922,2.129,1.987c-0.047,1.074-0.741,1.597-1.407,2.054l-1.112,0.76
			c-0.56,0.371-0.913,0.961-1.036,1.54h3.66v0.532H60.388z"/>
		<path clip-path="url(#SVGID_4_)" fill="#2C2623" d="M68.93,117.396v1.292h-0.627v-1.292h-3.26v-0.713l3.251-4.763h0.636v4.934
			h1.027v0.542H68.93z M68.303,113.005l-0.047-0.02l-2.596,3.869h2.643V113.005z"/>
		<rect x="70.163" y="115.2" clip-path="url(#SVGID_4_)" fill="#2C2623" width="5.599" height="0.59"/>
		<path clip-path="url(#SVGID_4_)" fill="#2C2623" d="M79.883,117.396v1.292h-0.627v-1.292h-3.26v-0.713l3.251-4.763h0.636v4.934
			h1.027v0.542H79.883z M79.256,113.005l-0.047-0.02l-2.596,3.869h2.643V113.005z"/>
		<path clip-path="url(#SVGID_4_)" fill="#2C2623" d="M82.685,118.688v-5.037h-1.369v-0.514c0.371,0,0.694-0.095,1.046-0.333
			c0.257-0.19,0.456-0.522,0.475-0.874h0.485v6.758H82.685z"/>
		<path clip-path="url(#SVGID_4_)" fill="#2C2623" d="M88.367,117.396v1.292H87.74v-1.292h-3.26v-0.713l3.251-4.763h0.636v4.934
			h1.027v0.542H88.367z M87.74,113.005l-0.047-0.02l-2.596,3.869h2.643V113.005z"/>
		<path clip-path="url(#SVGID_4_)" fill="#2C2623" d="M91.168,118.688v-5.037h-1.369v-0.514c0.371,0,0.694-0.095,1.046-0.333
			c0.257-0.19,0.456-0.522,0.475-0.874h0.485v6.758H91.168z"/>
		<path clip-path="url(#SVGID_4_)" fill="#2C2623" d="M104.251,116.075v3.488h-1.131v-3.488h-3.413v-0.961h5.771
			c0.151-0.455,0.389-1.644,0.446-2.527h-5.285v-0.961h6.55c0,0.285-0.143,1.379-0.248,1.986c-0.104,0.619-0.266,1.227-0.332,1.502
			h1.464v0.961H104.251z"/>
		<path clip-path="url(#SVGID_4_)" fill="#2C2623" d="M108.447,116.322v-0.96h3.613v-0.932h-2.567v-2.994h6.284v0.959h-5.181v1.074
			h5.276v0.961h-2.681v0.932h3.622v0.96H108.447z M114.674,119.563v-1.578h-5.276v-0.969h6.379v2.547H114.674z"/>
		<path clip-path="url(#SVGID_4_)" fill="#2C2623" d="M125.465,115.306c0,2.063-0.856,3.526-2.424,3.526
			c-1.569,0-2.406-1.463-2.406-3.526c0-2.045,0.837-3.508,2.406-3.508C124.609,111.798,125.465,113.261,125.465,115.306
			 M124.733,115.306c0-1.664-0.58-2.919-1.692-2.919c-1.094,0-1.683,1.255-1.683,2.919c0,1.682,0.589,2.938,1.683,2.938
			C124.153,118.243,124.733,116.987,124.733,115.306"/>
		<path clip-path="url(#SVGID_4_)" fill="#2C2623" d="M130.918,116.854c0,1.112-1.055,2.044-2.453,2.044
			c-1.416,0-2.452-0.932-2.452-2.044c0-0.742,0.542-1.406,1.216-1.759c-0.541-0.323-0.979-0.874-0.979-1.521
			c0-0.998,0.904-1.835,2.215-1.835c1.274,0,2.206,0.837,2.206,1.835c0,0.646-0.447,1.197-0.989,1.512
			C130.357,115.448,130.918,116.112,130.918,116.854 M130.224,116.854c0-0.799-0.665-1.426-1.759-1.426
			c-1.121,0-1.777,0.627-1.777,1.426s0.656,1.445,1.777,1.445C129.559,118.3,130.224,117.653,130.224,116.854 M129.996,113.565
			c0-0.675-0.542-1.236-1.531-1.236c-1.064,0-1.53,0.562-1.53,1.236c0,0.656,0.466,1.207,1.53,1.207
			C129.454,114.772,129.996,114.222,129.996,113.565"/>
		<path clip-path="url(#SVGID_4_)" fill="#2C2623" d="M136.2,115.306c0,2.063-0.856,3.526-2.424,3.526s-2.405-1.463-2.405-3.526
			c0-2.045,0.837-3.508,2.405-3.508S136.2,113.261,136.2,115.306 M135.468,115.306c0-1.664-0.58-2.919-1.692-2.919
			c-1.093,0-1.683,1.255-1.683,2.919c0,1.682,0.59,2.938,1.683,2.938C134.888,118.243,135.468,116.987,135.468,115.306"/>
		<rect x="136.757" y="115.2" clip-path="url(#SVGID_4_)" fill="#2C2623" width="5.599" height="0.59"/>
		<path clip-path="url(#SVGID_4_)" fill="#2C2623" d="M147.571,116.854c0,1.112-1.055,2.044-2.453,2.044
			c-1.416,0-2.452-0.932-2.452-2.044c0-0.742,0.542-1.406,1.216-1.759c-0.541-0.323-0.979-0.874-0.979-1.521
			c0-0.998,0.904-1.835,2.215-1.835c1.274,0,2.206,0.837,2.206,1.835c0,0.646-0.447,1.197-0.989,1.512
			C147.01,115.448,147.571,116.112,147.571,116.854 M146.877,116.854c0-0.799-0.665-1.426-1.759-1.426
			c-1.121,0-1.777,0.627-1.777,1.426s0.656,1.445,1.777,1.445C146.212,118.3,146.877,117.653,146.877,116.854 M146.649,113.565
			c0-0.675-0.542-1.236-1.531-1.236c-1.064,0-1.53,0.562-1.53,1.236c0,0.656,0.466,1.207,1.53,1.207
			C146.107,114.772,146.649,114.222,146.649,113.565"/>
		<path clip-path="url(#SVGID_4_)" fill="#2C2623" d="M152.435,116.579c-0.047,1.473-1.122,2.291-2.234,2.291
			c-1.302,0-2.129-0.922-2.263-1.873h0.628c0.057,0.551,0.646,1.293,1.587,1.293c0.98,0,1.569-0.751,1.607-1.683
			c0.048-1.046-0.627-1.797-1.502-1.825c-0.837-0.029-1.312,0.399-1.55,0.741h-0.57l0.485-3.508h3.546v0.552l-3.014,0.01
			l-0.285,2.101c0.447-0.353,1.065-0.514,1.569-0.476C151.418,114.298,152.492,115.114,152.435,116.579"/>
		<path clip-path="url(#SVGID_4_)" fill="#2C2623" d="M157.888,115.306c0,2.063-0.856,3.526-2.424,3.526
			c-1.568,0-2.405-1.463-2.405-3.526c0-2.045,0.837-3.508,2.405-3.508C157.032,111.798,157.888,113.261,157.888,115.306
			 M157.156,115.306c0-1.664-0.58-2.919-1.692-2.919c-1.093,0-1.683,1.255-1.683,2.919c0,1.682,0.59,2.938,1.683,2.938
			C156.576,118.243,157.156,116.987,157.156,115.306"/>
		<rect x="158.445" y="115.2" clip-path="url(#SVGID_4_)" fill="#2C2623" width="5.599" height="0.59"/>
		<path clip-path="url(#SVGID_4_)" fill="#2C2623" d="M169.326,115.306c0,2.063-0.856,3.526-2.424,3.526
			c-1.568,0-2.405-1.463-2.405-3.526c0-2.045,0.837-3.508,2.405-3.508C168.47,111.798,169.326,113.261,169.326,115.306
			 M168.594,115.306c0-1.664-0.58-2.919-1.692-2.919c-1.093,0-1.683,1.255-1.683,2.919c0,1.682,0.59,2.938,1.683,2.938
			C168.014,118.243,168.594,116.987,168.594,115.306"/>
		<path clip-path="url(#SVGID_4_)" fill="#2C2623" d="M174.845,115.306c0,2.063-0.856,3.526-2.424,3.526s-2.405-1.463-2.405-3.526
			c0-2.045,0.837-3.508,2.405-3.508S174.845,113.261,174.845,115.306 M174.113,115.306c0-1.664-0.58-2.919-1.692-2.919
			c-1.093,0-1.683,1.255-1.683,2.919c0,1.682,0.59,2.938,1.683,2.938C173.533,118.243,174.113,116.987,174.113,115.306"/>
		<path clip-path="url(#SVGID_4_)" fill="#2C2623" d="M179.205,117.396v1.292h-0.627v-1.292h-3.26v-0.713l3.251-4.763h0.636v4.934
			h1.027v0.542H179.205z M178.578,113.005l-0.047-0.02l-2.596,3.869h2.643V113.005z"/>
		<path clip-path="url(#SVGID_4_)" fill="#2C2623" d="M182.006,118.688v-5.037h-1.369v-0.514c0.371,0,0.694-0.095,1.046-0.333
			c0.257-0.19,0.456-0.522,0.475-0.874h0.485v6.758H182.006z"/>
		
			<rect x="809.167" y="10.913" clip-path="url(#SVGID_4_)" fill="none" stroke="#000000" stroke-miterlimit="10" width="219.265" height="71.32"/>
		<path clip-path="url(#SVGID_4_)" fill-rule="evenodd" clip-rule="evenodd" d="M450.08,3.625c3.118,1.492,6.177,3.038,7.56,6.24
			c1.874,4.339,0.885,17.773,0.84,24h-12.6v-23.04c-6.839-1.08-13.681-2.16-20.52-3.24c-0.32,1.08-0.64,2.16-0.96,3.24
			c3.255,1.468,6.203,3.132,7.561,6.48c1.076,2.652,0.72,6.933,0.72,10.56v20.4c-5.56,2.223-12.497,1.935-19.439,3
			c-1.968,0.302-6.211,0.505-7.201-0.48c-1.195-1.189-0.6-5.686-0.6-7.92v-21.96c-6.959-0.72-13.92-1.44-20.88-2.16
			c-0.24,1.16-0.48,2.32-0.72,3.48c3.057,0.488,6.488,2.05,7.56,4.56c3.02,7.07-1.759,23.507,2.04,29.76
			c2.138,3.519,8.278,4.697,14.4,3.72c4.92-0.6,9.841-1.2,14.76-1.8c3.378-0.74,6.86-2.085,10.08-2.52v36.361h11.04
			c1.266-3.343,1.016-7.329,1.68-11.401c0.748-4.584,0.481-10.053,0.48-15.24v-24.24h12.6v52.08h11.16
			c0.495-3.93,1.117-8.492,1.8-12.84l0.24-9.479V3.745c-6.879-1.12-13.76-2.24-20.64-3.36C450.72,1.465,450.399,2.545,450.08,3.625
			 M547.04,10.345c1.356,3.283,0.72,9.164,0.72,13.56v28.56h12c2.132-14.017,1.968-31.743,1.92-48.36
			c-7.239-1.2-14.48-2.4-21.72-3.6c-0.32,1.2-0.64,2.4-0.96,3.6v0.12C542.264,4.94,545.856,7.48,547.04,10.345 M636.44,10.225
			c1.628,3.767,0.72,12.729,0.72,17.88v40.081h12.12c0.399-2.56,0.8-5.121,1.2-7.681c0.199-2.519,0.399-5.041,0.6-7.56V3.985
			c-7.199-1.16-14.4-2.32-21.6-3.48c-0.32,1.24-0.641,2.48-0.961,3.72C631.748,5.204,635.165,7.274,636.44,10.225 M296.84,42.145
			h7.56c1.033-9.957,1.117-22.35,1.08-33.84c-4.479-0.72-8.96-1.44-13.44-2.16c-0.2,0.76-0.4,1.52-0.6,2.28
			c5.608,2.257,5.518,4.602,5.4,12.36h-11.16v4.8h11.16V42.145z M358.88,8.305c-4.479-0.72-8.96-1.44-13.44-2.16
			c-0.199,0.76-0.4,1.52-0.6,2.28c2.062,0.847,4.212,1.89,5.04,3.96c1.054,2.635,0.361,7.62,0.361,10.92v24.12h7.559
			c0.36-2.32,0.72-4.64,1.08-6.96v-13.44h9.48v-4.68h-9.48V8.305z M516.8,49.105c9.164-2.693,16.682-8.705,16.681-20.52
			c-0.001-4.22-0.935-7.508-2.521-10.2c-4.488-7.618-12.896-11.449-25.2-11.28c-2.399,0.36-4.8,0.72-7.2,1.08
			c-6.922,2.038-12.437,5.976-15.12,12.24C474.851,40.478,497.241,54.853,516.8,49.105 M495.92,23.905
			c1.133-3.262,3.609-5.915,6.72-7.2c1.16-0.28,2.32-0.56,3.48-0.84c17.996-0.239,18.341,22.983,3.121,25.56
			C499.508,43.073,492.801,32.89,495.92,23.905 M599.24,38.785c0.959-1.12,1.92-2.24,2.879-3.36c0.201-0.16,0.4-0.32,0.601-0.48
			c7.159,6.679,14.321,13.361,21.479,20.04h0.241c1.839-1.4,3.679-2.8,5.52-4.2c0.311-1.668-1.14-4.089-1.8-5.4
			c-1.606-3.188-3.015-6.244-6.36-7.68c-2.298-0.986-4.73-1.398-6.72-2.64c-2.6-2.04-5.2-4.08-7.8-6.12l-0.24-0.36
			c1.339-1.468,7.276-9.279,5.64-12.24c-0.704-1.454-3.523-1.983-5.04-2.64c-5.079-2.2-10.16-4.4-15.239-6.6
			c-0.761,1.32-1.521,2.64-2.281,3.96c7.596,4.037,7.713,9.715,4.08,18c-3.175,7.244-9.271,12.893-15.239,17.4
			c-2.56,1.88-5.12,3.76-7.68,5.64c1.399,1.72,2.8,3.44,4.2,5.16c1.596-0.008,5.93-3.434,7.439-4.44
			C588.919,48.827,594.781,44.325,599.24,38.785 M683.36,38.905c2.771,2.134,8.312,1.68,13.199,1.68h29.64
			c5.168,0,11.436,0.818,12.961-2.88c0.676-1.638,0.36-4.531,0.359-6.72c0-5.283,1.155-19.288-1.68-21.36
			c-2.591-1.894-13.229-0.961-17.76-0.96H673.52c-0.039,1.12-0.079,2.24-0.119,3.36C688.586,12.457,675.529,32.875,683.36,38.905
			 M695,16.225h20.64c3.093,0,7.327-0.424,9.479,0.6c0.963,2.569,0.968,12.913,0,15.48c-2.743,1.616-17.195,0.72-21.959,0.72
			c-2.115,0-5.597,0.465-7.08-0.36C694.666,31.963,694.236,18.969,695,16.225 M274.4,29.545c4.52,4.079,9.041,8.161,13.56,12.24
			c0.84-0.36,1.68-0.72,2.52-1.08c0.223-1.072-0.325-2.672-0.6-3.72c-1.648-6.291-3.086-4.592-7.8-7.32
			c-1.48-1.16-2.96-2.32-4.44-3.48c-0.16-0.2-0.32-0.4-0.48-0.6c0.878-1.63,4.826-6.89,3.48-9.48c-0.787-1.644-10.042-5.004-12.24-6
			c-0.52,0.8-1.04,1.6-1.56,2.4c1.308,1.354,2.998,2.115,3.72,4.08c1.01,2.746-0.537,6.04-1.319,7.92
			c-2.122,5.095-8.844,13.004-13.681,15.12c-0.223,0.755,1.818,2.881,2.64,3.48c3.791-2.045,7.079-4.71,10.32-7.32
			C270.479,33.705,272.441,31.625,274.4,29.545 M339.68,26.065c0.804-1.373,3.744-7,2.4-9c-1.157-1.723-6.077-1.08-8.88-1.08
			c-4.73,0.001-10.912,0.755-15-0.36c-1.938-0.529-3.642-1.475-5.28-2.28l-1.2,1.44c0.188,1.467,4.048,4.545,5.16,6h15.6
			c-3.221,8.455-5.901,10.508-13.2,14.76c-1.8,0.92-3.6,1.84-5.4,2.76c-0.04,0.08-0.08,0.16-0.12,0.24
			c0.68,1.08,1.36,2.16,2.04,3.24c1.145,0.413,5.927-2.044,7.32-2.64C330.515,35.985,335.788,32.714,339.68,26.065 M304.52,46.105
			c-1.597-1.083-8.58-0.48-11.279-0.48c-9.089,0-20.461,0.992-26.761-1.92c-0.36,0.64-0.72,1.28-1.08,1.92
			c2.04,1.56,4.08,3.121,6.12,4.68H290c1.656,0,5.095-0.516,6.241,0.24c1.021,0.674,0.613,11.21,0.599,13.559h7.56
			C304.695,61.44,306.983,47.775,304.52,46.105 M696.92,47.905c-13.674,0-27.11,0.214-36.6-3.6c-0.681,1.12-1.36,2.24-2.04,3.359
			c3.479,2.561,6.96,5.122,10.439,7.681h35.761v19.679h11.88c0.52-2.839,1.04-5.68,1.56-8.52c0.08-3.719,0.16-7.44,0.24-11.16h35.28
			v-7.44H696.92z M342.439,59.545c-2.85,0-6.934,0.455-9-0.48c-0.883-3.631-0.265-8.989-0.24-13.08
			c-4.519-0.24-9.04-0.48-13.56-0.72c-0.12,0.76-0.24,1.52-0.36,2.28c2.132,0.665,4.144,0.764,4.92,2.76
			c1.384,3.556-0.743,9.223,1.2,12c1.55,2.215,5.462,1.921,9.24,1.921c6.6-0.041,13.201-0.081,19.8-0.122
			c2.48-0.16,4.961-0.32,7.44-0.478c0.543-0.587,0.281-3.029,0.24-4.081H342.439z M520.16,85.466
			c-1.066-1.482-0.898-4.441-0.84-7.08h29.399c3.448,0,9.419,0.798,11.641-0.721c2.048-1.397,1.319-7.08,1.319-10.438
			c0-2.647,0.527-6.823-0.6-8.521c-1.641-2.472-11.736-1.561-16.08-1.561h-23.4c-4.119-0.08-8.24-0.16-12.359-0.24
			c-3.36-0.551-6.333-1.413-9.241-2.16c-0.48,1-0.96,2.001-1.44,3c3.32,2.32,6.64,4.64,9.96,6.961h29.28
			c2.958-0.002,7.33-0.506,9.48,0.479c0.621,1.589,0.669,4.093-0.24,5.399c-4.74,1.053-11.345,0.24-16.56,0.24H497.12l-0.12,3.24
			c3.552,0.693,7.037,0.973,8.04,4.2c1.784,5.737-1.592,11.782,3.84,14.28c3.866,1.775,11.546,0.84,16.8,0.84
			c13.22,0,27.07-0.284,39.12-0.84v-6.721h-30.12C530.169,85.825,524.002,86.581,520.16,85.466 M609.56,85.706
			c-1.856-2.75-0.882-14.666-0.84-19.32c-7.239-0.361-14.48-0.721-21.72-1.079c-0.16,1.239-0.32,2.479-0.48,3.718
			c3.881,0.198,7.149,1.789,8.04,5.041c1.887,6.881-2.035,14.536,3.48,18.12c3.53,2.294,11.283,1.44,16.92,1.44h28.44
			c4.079-0.281,8.16-0.561,12.239-0.842v-6.719h-30.96C619.974,86.065,613.597,86.845,609.56,85.706 M695.72,85.706
			c-1.843-2.613-0.881-14.656-0.84-19.201c-7.279-0.4-14.561-0.799-21.84-1.198c-0.16,1.159-0.32,2.319-0.48,3.478
			c0.591,0.449,1.563,0.375,2.4,0.602c2.45,0.66,4.713,1.664,5.521,3.959c2.242,6.38-1.792,14.771,3.359,18.6
			c3.375,2.51,11.047,1.682,16.8,1.682h28.801c4.119-0.281,8.24-0.561,12.359-0.842v-6.719h-31.08
			C706.069,86.065,699.695,86.858,695.72,85.706"/>
		
			<line clip-path="url(#SVGID_4_)" fill="none" stroke="#AB2451" stroke-width="1.5" stroke-miterlimit="10" x1="0.5" y1="126.505" x2="1029.35" y2="126.505"/>
		
			<line clip-path="url(#SVGID_4_)" fill="none" stroke="#000000" stroke-width="0.2" stroke-miterlimit="10" x1="0.5" y1="105.667" x2="1029.35" y2="105.667"/>
		<path clip-path="url(#SVGID_4_)" fill="#AB2451" d="M485.269,122.233h-2.21v-5.354c0-0.556-0.152-0.976-0.459-1.259
			c-0.261-0.238-0.595-0.357-1.003-0.357c-0.419,0-0.754,0.113-1.003,0.34c-0.317,0.283-0.475,0.709-0.475,1.276v5.354h-2.21v-8.857
			h2.159v0.816c0.577-0.612,1.314-0.918,2.21-0.918c0.43,0,0.824,0.067,1.18,0.203c0.358,0.137,0.661,0.329,0.911,0.578
			c0.328,0.329,0.56,0.7,0.697,1.114c0.136,0.413,0.203,0.881,0.203,1.401V122.233z"/>
		<path clip-path="url(#SVGID_4_)" fill="#AB2451" d="M494.245,122.233h-2.159v-0.766c-0.307,0.307-0.618,0.524-0.936,0.654
			c-0.317,0.131-0.73,0.196-1.241,0.196c-0.985,0-1.73-0.259-2.235-0.774c-0.504-0.515-0.756-1.181-0.756-1.997
			c0-0.759,0.243-1.366,0.73-1.819c0.533-0.498,1.298-0.748,2.295-0.748h2.091v-0.441c0-0.487-0.127-0.841-0.382-1.062
			c-0.255-0.221-0.678-0.332-1.266-0.332c-0.431,0-0.76,0.052-0.987,0.153c-0.227,0.103-0.465,0.295-0.714,0.578l-1.411-1.377
			c0.431-0.465,0.878-0.784,1.343-0.96c0.465-0.175,1.083-0.264,1.854-0.264c2.515,0,3.774,1.044,3.774,3.128V122.233z
			 M492.034,118.969v-0.476h-1.751c-0.827,0-1.24,0.334-1.24,1.003c0,0.68,0.425,1.021,1.274,1.021c0.352,0,0.623-0.026,0.817-0.077
			c0.192-0.052,0.39-0.173,0.594-0.366C491.932,119.882,492.034,119.513,492.034,118.969"/>
		<path clip-path="url(#SVGID_4_)" fill="#AB2451" d="M503.799,118.493h-5.542c0,0.591,0.17,1.064,0.511,1.428
			c0.339,0.363,0.815,0.544,1.427,0.544c0.453,0,0.824-0.062,1.114-0.187c0.289-0.125,0.586-0.34,0.892-0.646l1.343,1.309
			c-0.487,0.488-0.978,0.842-1.471,1.062c-0.492,0.222-1.124,0.332-1.895,0.332c-1.213,0-2.16-0.307-2.84-0.919
			c-0.839-0.747-1.258-1.954-1.258-3.62c0-1.416,0.352-2.524,1.054-3.324c0.703-0.799,1.637-1.197,2.805-1.197
			c1.202,0,2.154,0.402,2.856,1.207c0.669,0.771,1.003,1.779,1.003,3.025V118.493z M501.623,116.979
			c0-0.306-0.065-0.611-0.195-0.918c-0.131-0.306-0.321-0.541-0.57-0.705c-0.25-0.164-0.555-0.246-0.918-0.246
			s-0.669,0.082-0.918,0.246c-0.25,0.164-0.439,0.399-0.569,0.705c-0.131,0.307-0.196,0.612-0.196,0.918H501.623z"/>
		<path clip-path="url(#SVGID_4_)" fill="#AB2451" d="M507.913,111.862h-2.21v-1.802h2.21V111.862z M507.913,122.233h-2.21v-8.857
			h2.21V122.233z"/>
		<path clip-path="url(#SVGID_4_)" fill="#AB2451" d="M514.066,122.233h-1.258c-0.85,0-1.508-0.262-1.972-0.783
			c-0.408-0.464-0.612-1.047-0.612-1.75v-9.57h2.21v9.434c0,0.533,0.261,0.799,0.782,0.799h0.85V122.233z"/>
		<rect x="515.648" y="119.716" clip-path="url(#SVGID_4_)" fill="#AB2451" width="2.532" height="2.518"/>
		<path clip-path="url(#SVGID_4_)" fill="#AB2451" d="M526.918,121.128c-0.771,0.805-1.745,1.207-2.924,1.207
			c-1.065,0-1.943-0.307-2.635-0.918c-0.884-0.782-1.326-1.989-1.326-3.621s0.437-2.833,1.31-3.604
			c0.69-0.612,1.575-0.918,2.651-0.918c1.19,0,2.165,0.396,2.924,1.189l-1.495,1.496c-0.228-0.249-0.451-0.428-0.672-0.535
			s-0.474-0.162-0.757-0.162c-0.521,0-0.943,0.199-1.267,0.596c-0.322,0.396-0.484,1.043-0.484,1.938
			c0,0.906,0.162,1.56,0.484,1.955c0.323,0.397,0.745,0.595,1.267,0.595s0.997-0.231,1.429-0.696L526.918,121.128z"/>
		<path clip-path="url(#SVGID_4_)" fill="#AB2451" d="M535.656,117.796c0,0.884-0.068,1.575-0.204,2.074
			c-0.136,0.498-0.402,0.957-0.799,1.377c-0.308,0.328-0.687,0.592-1.14,0.791c-0.453,0.197-0.991,0.297-1.614,0.297
			c-0.612,0-1.146-0.1-1.6-0.297c-0.452-0.199-0.833-0.463-1.138-0.791c-0.386-0.396-0.65-0.859-0.791-1.386
			c-0.142-0.526-0.212-1.216-0.212-2.065c0-0.873,0.067-1.559,0.204-2.057c0.136-0.499,0.402-0.958,0.799-1.377
			c0.305-0.329,0.663-0.584,1.071-0.766c0.485-0.215,1.042-0.321,1.666-0.321c0.61,0,1.167,0.106,1.666,0.321
			c0.419,0.182,0.78,0.437,1.088,0.766c0.385,0.396,0.647,0.857,0.79,1.385C535.585,116.275,535.656,116.958,535.656,117.796
			 M533.446,117.796c0-0.578-0.028-1.022-0.085-1.334c-0.059-0.312-0.199-0.581-0.426-0.809c-0.261-0.26-0.606-0.391-1.036-0.391
			c-0.42,0-0.76,0.131-1.021,0.391c-0.204,0.206-0.34,0.479-0.408,0.825c-0.067,0.346-0.102,0.784-0.102,1.317
			c0,0.714,0.039,1.207,0.119,1.479c0.079,0.271,0.209,0.5,0.391,0.68c0.261,0.261,0.601,0.391,1.021,0.391
			c0.43,0,0.775-0.13,1.036-0.391c0.204-0.204,0.341-0.479,0.408-0.825C533.412,118.784,533.446,118.34,533.446,117.796"/>
		<path clip-path="url(#SVGID_4_)" fill="#AB2451" d="M550.174,122.233h-2.21v-5.354c0-0.556-0.153-0.976-0.459-1.259
			c-0.261-0.238-0.595-0.357-1.003-0.357c-0.396,0-0.726,0.113-0.986,0.34c-0.328,0.283-0.493,0.692-0.493,1.225v5.406h-2.21v-5.354
			c0-0.556-0.152-0.976-0.459-1.259c-0.261-0.238-0.595-0.357-1.003-0.357c-0.419,0-0.754,0.113-1.003,0.34
			c-0.318,0.283-0.476,0.709-0.476,1.276v5.354h-2.21v-8.857h2.158v0.816c0.284-0.295,0.618-0.522,1.004-0.681
			c0.385-0.158,0.786-0.237,1.207-0.237c1.02,0,1.802,0.373,2.346,1.121c0.714-0.748,1.598-1.121,2.652-1.121
			c0.441,0,0.853,0.067,1.232,0.203c0.379,0.137,0.693,0.329,0.943,0.578c0.34,0.34,0.586,0.717,0.74,1.131
			c0.152,0.414,0.229,0.875,0.229,1.385V122.233z"/>
	</g>
</g>
</svg>
