<svg xmlns="http://www.w3.org/2000/svg" xmlns:xlink="http://www.w3.org/1999/xlink" width="685.984332px" height="481.88982000000004px">
<rect x="0" y="0" width="100" height="100" style="fill:white;stroke:black;stroke-width:0.3"></rect>
<g transform="translate(0,0)">
<rect x="0.0" y="0" width="158.740176" height="481.88982000000004" style="fill:white;stroke:black;"></rect>
<g transform="translate(0.0,0)">
<rect x="0" y="0" width="158.740176" height="13.768280571428573" style="fill:clear;stroke:black;"></rect>
<g transform="translate(0,0)">
</g>
<rect x="0" y="13.768280571428573" width="158.740176" height="13.768280571428573" style="fill:clear;stroke:black;"></rect>
<g transform="translate(0,13.768280571428573)">
</g>
<rect x="0" y="27.536561142857146" width="158.740176" height="13.768280571428573" style="fill:clear;stroke:black;"></rect>
<g transform="translate(0,27.536561142857146)">
</g>
<rect x="0" y="41.304841714285715" width="158.740176" height="13.768280571428573" style="fill:clear;stroke:black;"></rect>
<g transform="translate(0,41.304841714285715)">
</g>
<rect x="0" y="55.07312228571429" width="158.740176" height="13.768280571428573" style="fill:clear;stroke:black;"></rect>
<g transform="translate(0,55.07312228571429)">
</g>
<rect x="0" y="68.84140285714287" width="158.740176" height="13.768280571428573" style="fill:clear;stroke:black;"></rect>
<g transform="translate(0,68.84140285714287)">
</g>
<rect x="0" y="82.60968342857144" width="158.740176" height="13.768280571428573" style="fill:clear;stroke:black;"></rect>
<g transform="translate(0,82.60968342857144)">
</g>
<rect x="0" y="96.37796400000002" width="158.740176" height="13.768280571428573" style="fill:clear;stroke:black;"></rect>
<g transform="translate(0,96.37796400000002)">
</g>
<rect x="0" y="110.1462445714286" width="158.740176" height="13.768280571428573" style="fill:clear;stroke:black;"></rect>
<g transform="translate(0,110.1462445714286)">
</g>
<rect x="0" y="123.91452514285717" width="158.740176" height="13.768280571428573" style="fill:clear;stroke:black;"></rect>
<g transform="translate(0,123.91452514285717)">
</g>
<rect x="0" y="137.68280571428573" width="158.740176" height="13.768280571428573" style="fill:clear;stroke:black;"></rect>
<g transform="translate(0,137.68280571428573)">
</g>
<rect x="0" y="151.4510862857143" width="158.740176" height="13.768280571428573" style="fill:clear;stroke:black;"></rect>
<g transform="translate(0,151.4510862857143)">
</g>
<rect x="0" y="165.21936685714286" width="158.740176" height="13.768280571428573" style="fill:clear;stroke:black;"></rect>
<g transform="translate(0,165.21936685714286)">
</g>
<rect x="0" y="178.98764742857142" width="158.740176" height="13.768280571428573" style="fill:clear;stroke:black;"></rect>
<g transform="translate(0,178.98764742857142)">
</g>
<rect x="0" y="192.75592799999998" width="158.740176" height="13.768280571428573" style="fill:clear;stroke:black;"></rect>
<g transform="translate(0,192.75592799999998)">
</g>
<rect x="0" y="206.52420857142855" width="158.740176" height="13.768280571428573" style="fill:clear;stroke:black;"></rect>
<g transform="translate(0,206.52420857142855)">
</g>
<rect x="0" y="220.2924891428571" width="158.740176" height="13.768280571428573" style="fill:clear;stroke:black;"></rect>
<g transform="translate(0,220.2924891428571)">
</g>
<rect x="0" y="234.06076971428567" width="158.740176" height="13.768280571428573" style="fill:clear;stroke:black;"></rect>
<g transform="translate(0,234.06076971428567)">
<text font-size="" x="10" y="7.68">여기는</text>
<text font-size="" x="49.64672533333333" y="7.68">본문이</text>
<text font-size="" x="89.29345066666666" y="7.68">입니다</text>
<text font-size="" x="128.94017599999998" y="7.68">본문을</text>
</g>
<rect x="0" y="247.82905028571423" width="158.740176" height="13.768280571428573" style="fill:clear;stroke:black;"></rect>
<g transform="translate(0,247.82905028571423)">
<text font-size="" x="1" y="7.68">여기에</text>
<text font-size="" x="34.78504399999999" y="7.68">입력</text>
<text font-size="" x="58.97008799999999" y="7.68">하시면</text>
<text font-size="" x="92.75513199999997" y="7.68">됩니다.</text>
<text font-size="" x="128.94017599999995" y="7.68">여기는</text>
</g>
<rect x="0" y="261.5973308571428" width="158.740176" height="13.768280571428573" style="fill:clear;stroke:black;"></rect>
<g transform="translate(0,261.5973308571428)">
<text font-size="" x="1" y="7.68">본문이</text>
<text font-size="" x="43.64672533333333" y="7.68">입니다</text>
<text font-size="" x="86.29345066666666" y="7.68">여기는</text>
<text font-size="" x="128.94017599999998" y="7.68">본문이</text>
</g>
<rect x="0" y="275.3656114285714" width="158.740176" height="13.768280571428573" style="fill:clear;stroke:black;"></rect>
<g transform="translate(0,275.3656114285714)">
<text font-size="" x="1" y="7.68">입니다</text>
<text font-size="" x="43.64672533333333" y="7.68">여기는</text>
<text font-size="" x="86.29345066666666" y="7.68">본문이</text>
<text font-size="" x="128.94017599999998" y="7.68">입니다</text>
</g>
<rect x="0" y="289.133892" width="158.740176" height="13.768280571428573" style="fill:clear;stroke:black;"></rect>
<g transform="translate(0,289.133892)">
<text font-size="" x="1" y="7.68">여기는</text>
<text font-size="" x="43.64672533333333" y="7.68">본문이</text>
<text font-size="" x="86.29345066666666" y="7.68">입니다</text>
<text font-size="" x="128.94017599999998" y="7.68">여기는</text>
</g>
<rect x="0" y="302.9021725714286" width="158.740176" height="13.768280571428573" style="fill:clear;stroke:black;"></rect>
<g transform="translate(0,302.9021725714286)">
<text font-size="" x="1" y="7.68">본문이</text>
<text font-size="" x="43.64672533333333" y="7.68">입니다</text>
<text font-size="" x="86.29345066666666" y="7.68">여기는</text>
<text font-size="" x="128.94017599999998" y="7.68">본문이</text>
</g>
<rect x="0" y="316.6704531428572" width="158.740176" height="13.768280571428573" style="fill:clear;stroke:black;"></rect>
<g transform="translate(0,316.6704531428572)">
<text font-size="" x="1" y="7.68">입니다</text>
<text font-size="" x="43.64672533333333" y="7.68">여기는</text>
<text font-size="" x="86.29345066666666" y="7.68">본문이</text>
<text font-size="" x="128.94017599999998" y="7.68">입니다</text>
</g>
<rect x="0" y="330.4387337142858" width="158.740176" height="13.768280571428573" style="fill:clear;stroke:black;"></rect>
<g transform="translate(0,330.4387337142858)">
<text font-size="" x="1" y="7.68">여기는</text>
<text font-size="" x="43.64672533333333" y="7.68">본문이</text>
<text font-size="" x="86.29345066666666" y="7.68">입니다</text>
<text font-size="" x="128.94017599999998" y="7.68">여기는</text>
</g>
<rect x="0" y="344.20701428571437" width="158.740176" height="13.768280571428573" style="fill:clear;stroke:black;"></rect>
<g transform="translate(0,344.20701428571437)">
<text font-size="" x="1" y="7.68">본문이</text>
<text font-size="" x="43.64672533333333" y="7.68">입니다</text>
<text font-size="" x="86.29345066666666" y="7.68">여기는</text>
<text font-size="" x="128.94017599999998" y="7.68">본문이</text>
</g>
<rect x="0" y="357.97529485714296" width="158.740176" height="13.768280571428573" style="fill:clear;stroke:black;"></rect>
<g transform="translate(0,357.97529485714296)">
<text font-size="" x="1" y="7.68">입니다</text>
<text font-size="" x="43.64672533333333" y="7.68">여기는</text>
<text font-size="" x="86.29345066666666" y="7.68">본문이</text>
<text font-size="" x="128.94017599999998" y="7.68">입니다</text>
</g>
<rect x="0" y="371.74357542857155" width="158.740176" height="13.768280571428573" style="fill:clear;stroke:black;"></rect>
<g transform="translate(0,371.74357542857155)">
<text font-size="" x="1" y="7.68">여기는</text>
<text font-size="" x="43.64672533333333" y="7.68">본문이</text>
<text font-size="" x="86.29345066666666" y="7.68">입니다</text>
<text font-size="" x="128.94017599999998" y="7.68">여기는</text>
</g>
<rect x="0" y="385.51185600000014" width="158.740176" height="13.768280571428573" style="fill:clear;stroke:black;"></rect>
<g transform="translate(0,385.51185600000014)">
<text font-size="" x="1" y="7.68">본문이</text>
<text font-size="" x="43.64672533333333" y="7.68">입니다</text>
<text font-size="" x="86.29345066666666" y="7.68">여기는</text>
<text font-size="" x="128.94017599999998" y="7.68">본문이</text>
</g>
<rect x="0" y="399.2801365714287" width="158.740176" height="13.768280571428573" style="fill:clear;stroke:black;"></rect>
<g transform="translate(0,399.2801365714287)">
<text font-size="" x="1" y="7.68">입니다.</text>
<text font-size="" x="44.44672533333333" y="7.68">여기는</text>
<text font-size="" x="85.49345066666666" y="7.68">본문이</text>
<text font-size="" x="126.540176" y="7.68">입니다.</text>
</g>
<rect x="0" y="413.0484171428573" width="158.740176" height="13.768280571428573" style="fill:clear;stroke:black;"></rect>
<g transform="translate(0,413.0484171428573)">
<text font-size="" x="1" y="7.68">여기는</text>
<text font-size="" x="42.84672533333333" y="7.68">본문이</text>
<text font-size="" x="84.69345066666666" y="7.68">입니다.</text>
<text font-size="" x="128.940176" y="7.68">여기는</text>
</g>
<rect x="0" y="426.8166977142859" width="158.740176" height="13.768280571428573" style="fill:clear;stroke:black;"></rect>
<g transform="translate(0,426.8166977142859)">
<text font-size="" x="1" y="7.68">본문이</text>
<text font-size="" x="42.84672533333333" y="7.68">입니다.</text>
<text font-size="" x="87.09345066666666" y="7.68">여기는</text>
<text font-size="" x="128.94017599999998" y="7.68">본문이</text>
</g>
<rect x="0" y="440.5849782857145" width="158.740176" height="13.768280571428573" style="fill:clear;stroke:black;"></rect>
<g transform="translate(0,440.5849782857145)">
<text font-size="" x="1" y="7.68">입니다.</text>
<text font-size="" x="37.199999999999996" y="7.68">여기는</text>
</g>
</g>
<rect x="171.496083" y="0" width="158.740176" height="481.88982000000004" style="fill:white;stroke:black;"></rect>
<g transform="translate(171.496083,0)">
<rect x="0" y="0" width="158.740176" height="13.768280571428573" style="fill:clear;stroke:black;"></rect>
<g transform="translate(0,0)">
</g>
<rect x="0" y="13.768280571428573" width="158.740176" height="13.768280571428573" style="fill:clear;stroke:black;"></rect>
<g transform="translate(0,13.768280571428573)">
</g>
<rect x="0" y="27.536561142857146" width="158.740176" height="13.768280571428573" style="fill:clear;stroke:black;"></rect>
<g transform="translate(0,27.536561142857146)">
</g>
<rect x="0" y="41.304841714285715" width="158.740176" height="13.768280571428573" style="fill:clear;stroke:black;"></rect>
<g transform="translate(0,41.304841714285715)">
</g>
<rect x="0" y="55.07312228571429" width="158.740176" height="13.768280571428573" style="fill:clear;stroke:black;"></rect>
<g transform="translate(0,55.07312228571429)">
</g>
<rect x="0" y="68.84140285714287" width="158.740176" height="13.768280571428573" style="fill:clear;stroke:black;"></rect>
<g transform="translate(0,68.84140285714287)">
</g>
<rect x="0" y="82.60968342857144" width="158.740176" height="13.768280571428573" style="fill:clear;stroke:black;"></rect>
<g transform="translate(0,82.60968342857144)">
</g>
<rect x="0" y="96.37796400000002" width="158.740176" height="13.768280571428573" style="fill:clear;stroke:black;"></rect>
<g transform="translate(0,96.37796400000002)">
</g>
<rect x="0" y="110.1462445714286" width="158.740176" height="13.768280571428573" style="fill:clear;stroke:black;"></rect>
<g transform="translate(0,110.1462445714286)">
</g>
<rect x="0" y="123.91452514285717" width="158.740176" height="13.768280571428573" style="fill:clear;stroke:black;"></rect>
<g transform="translate(0,123.91452514285717)">
<text font-size="" x="1" y="7.68">본문중간</text>
<text font-size="" x="44.4" y="7.68">제목</text>
<text font-size="" x="68.6" y="7.68">수정</text>
</g>
<rect x="0" y="137.68280571428573" width="158.740176" height="13.768280571428573" style="fill:clear;stroke:black;"></rect>
<g transform="translate(0,137.68280571428573)">
<text font-size="" x="10" y="7.68">여기는</text>
<text font-size="" x="49.64672533333333" y="7.68">본문이</text>
<text font-size="" x="89.29345066666666" y="7.68">입니다</text>
<text font-size="" x="128.94017599999998" y="7.68">본문을</text>
</g>
<rect x="0" y="151.4510862857143" width="158.740176" height="13.768280571428573" style="fill:clear;stroke:black;"></rect>
<g transform="translate(0,151.4510862857143)">
<text font-size="" x="1" y="7.68">여기에</text>
<text font-size="" x="34.78504399999999" y="7.68">입력</text>
<text font-size="" x="58.97008799999999" y="7.68">하시면</text>
<text font-size="" x="92.75513199999997" y="7.68">됩니다.</text>
<text font-size="" x="128.94017599999995" y="7.68">여기는</text>
</g>
<rect x="0" y="165.21936685714286" width="158.740176" height="13.768280571428573" style="fill:clear;stroke:black;"></rect>
<g transform="translate(0,165.21936685714286)">
<text font-size="" x="1" y="7.68">본문이</text>
<text font-size="" x="43.64672533333333" y="7.68">입니다</text>
<text font-size="" x="86.29345066666666" y="7.68">여기는</text>
<text font-size="" x="128.94017599999998" y="7.68">본문이</text>
</g>
<rect x="0" y="178.98764742857142" width="158.740176" height="13.768280571428573" style="fill:clear;stroke:black;"></rect>
<g transform="translate(0,178.98764742857142)">
<text font-size="" x="1" y="7.68">입니다</text>
<text font-size="" x="43.64672533333333" y="7.68">여기는</text>
<text font-size="" x="86.29345066666666" y="7.68">본문이</text>
<text font-size="" x="128.94017599999998" y="7.68">입니다</text>
</g>
<rect x="0" y="192.75592799999998" width="158.740176" height="13.768280571428573" style="fill:clear;stroke:black;"></rect>
<g transform="translate(0,192.75592799999998)">
<text font-size="" x="1" y="7.68">여기는</text>
<text font-size="" x="43.64672533333333" y="7.68">본문이</text>
<text font-size="" x="86.29345066666666" y="7.68">입니다</text>
<text font-size="" x="128.94017599999998" y="7.68">여기는</text>
</g>
<rect x="0" y="206.52420857142855" width="158.740176" height="13.768280571428573" style="fill:clear;stroke:black;"></rect>
<g transform="translate(0,206.52420857142855)">
<text font-size="" x="1" y="7.68">본문이</text>
<text font-size="" x="43.64672533333333" y="7.68">입니다</text>
<text font-size="" x="86.29345066666666" y="7.68">여기는</text>
<text font-size="" x="128.94017599999998" y="7.68">본문이</text>
</g>
<rect x="0" y="220.2924891428571" width="158.740176" height="13.768280571428573" style="fill:clear;stroke:black;"></rect>
<g transform="translate(0,220.2924891428571)">
<text font-size="" x="1" y="7.68">입니다</text>
<text font-size="" x="43.64672533333333" y="7.68">여기는</text>
<text font-size="" x="86.29345066666666" y="7.68">본문이</text>
<text font-size="" x="128.94017599999998" y="7.68">입니다</text>
</g>
<rect x="0" y="234.06076971428567" width="158.740176" height="13.768280571428573" style="fill:clear;stroke:black;"></rect>
<g transform="translate(0,234.06076971428567)">
<text font-size="" x="1" y="7.68">여기는</text>
<text font-size="" x="43.64672533333333" y="7.68">본문이</text>
<text font-size="" x="86.29345066666666" y="7.68">입니다</text>
<text font-size="" x="128.94017599999998" y="7.68">여기는</text>
</g>
<rect x="0" y="247.82905028571423" width="158.740176" height="13.768280571428573" style="fill:clear;stroke:black;"></rect>
<g transform="translate(0,247.82905028571423)">
<text font-size="" x="1" y="7.68">본문이</text>
<text font-size="" x="43.64672533333333" y="7.68">입니다</text>
<text font-size="" x="86.29345066666666" y="7.68">여기는</text>
<text font-size="" x="128.94017599999998" y="7.68">본문이</text>
</g>
<rect x="0" y="261.5973308571428" width="158.740176" height="13.768280571428573" style="fill:clear;stroke:black;"></rect>
<g transform="translate(0,261.5973308571428)">
<text font-size="" x="1" y="7.68">입니다</text>
<text font-size="" x="43.64672533333333" y="7.68">여기는</text>
<text font-size="" x="86.29345066666666" y="7.68">본문이</text>
<text font-size="" x="128.94017599999998" y="7.68">입니다</text>
</g>
<rect x="0" y="275.3656114285714" width="158.740176" height="13.768280571428573" style="fill:clear;stroke:black;"></rect>
<g transform="translate(0,275.3656114285714)">
<text font-size="" x="1" y="7.68">여기는</text>
<text font-size="" x="43.64672533333333" y="7.68">본문이</text>
<text font-size="" x="86.29345066666666" y="7.68">입니다</text>
<text font-size="" x="128.94017599999998" y="7.68">여기는</text>
</g>
<rect x="0" y="289.133892" width="158.740176" height="13.768280571428573" style="fill:clear;stroke:black;"></rect>
<g transform="translate(0,289.133892)">
<text font-size="" x="1" y="7.68">본문이</text>
<text font-size="" x="43.64672533333333" y="7.68">입니다</text>
<text font-size="" x="86.29345066666666" y="7.68">여기는</text>
<text font-size="" x="128.94017599999998" y="7.68">본문이</text>
</g>
<rect x="0" y="302.9021725714286" width="158.740176" height="13.768280571428573" style="fill:clear;stroke:black;"></rect>
<g transform="translate(0,302.9021725714286)">
<text font-size="" x="1" y="7.68">입니다.</text>
<text font-size="" x="44.44672533333333" y="7.68">여기는</text>
<text font-size="" x="85.49345066666666" y="7.68">본문이</text>
<text font-size="" x="126.540176" y="7.68">입니다.</text>
</g>
<rect x="0" y="316.6704531428572" width="158.740176" height="13.768280571428573" style="fill:clear;stroke:black;"></rect>
<g transform="translate(0,316.6704531428572)">
<text font-size="" x="1" y="7.68">여기는</text>
<text font-size="" x="42.84672533333333" y="7.68">본문이</text>
<text font-size="" x="84.69345066666666" y="7.68">입니다.</text>
<text font-size="" x="128.940176" y="7.68">여기는</text>
</g>
<rect x="0" y="330.4387337142858" width="158.740176" height="13.768280571428573" style="fill:clear;stroke:black;"></rect>
<g transform="translate(0,330.4387337142858)">
<text font-size="" x="1" y="7.68">본문이</text>
<text font-size="" x="42.84672533333333" y="7.68">입니다.</text>
<text font-size="" x="87.09345066666666" y="7.68">여기는</text>
<text font-size="" x="128.94017599999998" y="7.68">본문이</text>
</g>
<rect x="0" y="344.20701428571437" width="158.740176" height="13.768280571428573" style="fill:clear;stroke:black;"></rect>
<g transform="translate(0,344.20701428571437)">
<text font-size="" x="1" y="7.68">입니다.</text>
<text font-size="" x="37.199999999999996" y="7.68">여기는</text>
<text font-size="" x="71.0" y="7.68">본문이</text>
<text font-size="" x="104.8" y="7.68">입니다.</text>
</g>
<rect x="0" y="357.97529485714296" width="158.740176" height="13.768280571428573" style="fill:clear;stroke:black;"></rect>
<g transform="translate(0,357.97529485714296)">
<text font-size="" x="10" y="7.68">여기는</text>
<text font-size="" x="49.64672533333333" y="7.68">본문이</text>
<text font-size="" x="89.29345066666666" y="7.68">입니다</text>
<text font-size="" x="128.94017599999998" y="7.68">본문을</text>
</g>
<rect x="0" y="371.74357542857155" width="158.740176" height="13.768280571428573" style="fill:clear;stroke:black;"></rect>
<g transform="translate(0,371.74357542857155)">
<text font-size="" x="1" y="7.68">여기에</text>
<text font-size="" x="34.78504399999999" y="7.68">입력</text>
<text font-size="" x="58.97008799999999" y="7.68">하시면</text>
<text font-size="" x="92.75513199999997" y="7.68">됩니다.</text>
<text font-size="" x="128.94017599999995" y="7.68">여기는</text>
</g>
<rect x="0" y="385.51185600000014" width="158.740176" height="13.768280571428573" style="fill:clear;stroke:black;"></rect>
<g transform="translate(0,385.51185600000014)">
<text font-size="" x="1" y="7.68">본문이</text>
<text font-size="" x="43.64672533333333" y="7.68">입니다</text>
<text font-size="" x="86.29345066666666" y="7.68">여기는</text>
<text font-size="" x="128.94017599999998" y="7.68">본문이</text>
</g>
<rect x="0" y="399.2801365714287" width="158.740176" height="13.768280571428573" style="fill:clear;stroke:black;"></rect>
<g transform="translate(0,399.2801365714287)">
<text font-size="" x="1" y="7.68">입니다</text>
<text font-size="" x="43.64672533333333" y="7.68">여기는</text>
<text font-size="" x="86.29345066666666" y="7.68">본문이</text>
<text font-size="" x="128.94017599999998" y="7.68">입니다</text>
</g>
<rect x="0" y="413.0484171428573" width="158.740176" height="13.768280571428573" style="fill:clear;stroke:black;"></rect>
<g transform="translate(0,413.0484171428573)">
<text font-size="" x="1" y="7.68">여기는</text>
<text font-size="" x="43.64672533333333" y="7.68">본문이</text>
<text font-size="" x="86.29345066666666" y="7.68">입니다</text>
<text font-size="" x="128.94017599999998" y="7.68">여기는</text>
</g>
<rect x="0" y="426.8166977142859" width="158.740176" height="13.768280571428573" style="fill:clear;stroke:black;"></rect>
<g transform="translate(0,426.8166977142859)">
<text font-size="" x="1" y="7.68">본문이</text>
<text font-size="" x="43.64672533333333" y="7.68">입니다</text>
<text font-size="" x="86.29345066666666" y="7.68">여기는</text>
<text font-size="" x="128.94017599999998" y="7.68">본문이</text>
</g>
<rect x="0" y="440.5849782857145" width="158.740176" height="13.768280571428573" style="fill:clear;stroke:black;"></rect>
<g transform="translate(0,440.5849782857145)">
<text font-size="" x="1" y="7.68">입니다</text>
<text font-size="" x="43.64672533333333" y="7.68">여기는</text>
<text font-size="" x="86.29345066666666" y="7.68">본문이</text>
<text font-size="" x="128.94017599999998" y="7.68">입니다</text>
</g>
</g>
<rect x="342.992166" y="0" width="158.740176" height="481.88982000000004" style="fill:white;stroke:black;"></rect>
<g transform="translate(342.992166,0)">
<rect x="0" y="0" width="158.740176" height="13.768280571428573" style="fill:clear;stroke:black;"></rect>
<g transform="translate(0,0)">
</g>
<rect x="0" y="13.768280571428573" width="158.740176" height="13.768280571428573" style="fill:clear;stroke:black;"></rect>
<g transform="translate(0,13.768280571428573)">
</g>
<rect x="0" y="27.536561142857146" width="158.740176" height="13.768280571428573" style="fill:clear;stroke:black;"></rect>
<g transform="translate(0,27.536561142857146)">
</g>
<rect x="0" y="41.304841714285715" width="158.740176" height="13.768280571428573" style="fill:clear;stroke:black;"></rect>
<g transform="translate(0,41.304841714285715)">
</g>
<rect x="0" y="55.07312228571429" width="158.740176" height="13.768280571428573" style="fill:clear;stroke:black;"></rect>
<g transform="translate(0,55.07312228571429)">
</g>
<rect x="0" y="68.84140285714287" width="158.740176" height="13.768280571428573" style="fill:clear;stroke:black;"></rect>
<g transform="translate(0,68.84140285714287)">
</g>
<rect x="0" y="82.60968342857144" width="158.740176" height="13.768280571428573" style="fill:clear;stroke:black;"></rect>
<g transform="translate(0,82.60968342857144)">
</g>
<rect x="0" y="96.37796400000002" width="158.740176" height="13.768280571428573" style="fill:clear;stroke:black;"></rect>
<g transform="translate(0,96.37796400000002)">
</g>
<rect x="0" y="110.1462445714286" width="158.740176" height="13.768280571428573" style="fill:clear;stroke:black;"></rect>
<g transform="translate(0,110.1462445714286)">
</g>
<rect x="0" y="123.91452514285717" width="158.740176" height="13.768280571428573" style="fill:clear;stroke:black;"></rect>
<g transform="translate(0,123.91452514285717)">
<text font-size="" x="1" y="7.68">여기는</text>
<text font-size="" x="43.64672533333333" y="7.68">본문이</text>
<text font-size="" x="86.29345066666666" y="7.68">입니다</text>
<text font-size="" x="128.94017599999998" y="7.68">여기는</text>
</g>
<rect x="0" y="137.68280571428573" width="158.740176" height="13.768280571428573" style="fill:clear;stroke:black;"></rect>
<g transform="translate(0,137.68280571428573)">
<text font-size="" x="1" y="7.68">본문이</text>
<text font-size="" x="43.64672533333333" y="7.68">입니다</text>
<text font-size="" x="86.29345066666666" y="7.68">여기는</text>
<text font-size="" x="128.94017599999998" y="7.68">본문이</text>
</g>
<rect x="0" y="151.4510862857143" width="158.740176" height="13.768280571428573" style="fill:clear;stroke:black;"></rect>
<g transform="translate(0,151.4510862857143)">
<text font-size="" x="1" y="7.68">입니다</text>
<text font-size="" x="43.64672533333333" y="7.68">여기는</text>
<text font-size="" x="86.29345066666666" y="7.68">본문이</text>
<text font-size="" x="128.94017599999998" y="7.68">입니다</text>
</g>
<rect x="0" y="165.21936685714286" width="158.740176" height="13.768280571428573" style="fill:clear;stroke:black;"></rect>
<g transform="translate(0,165.21936685714286)">
<text font-size="" x="1" y="7.68">여기는</text>
<text font-size="" x="43.64672533333333" y="7.68">본문이</text>
<text font-size="" x="86.29345066666666" y="7.68">입니다</text>
<text font-size="" x="128.94017599999998" y="7.68">여기는</text>
</g>
<rect x="0" y="178.98764742857142" width="158.740176" height="13.768280571428573" style="fill:clear;stroke:black;"></rect>
<g transform="translate(0,178.98764742857142)">
<text font-size="" x="1" y="7.68">본문이</text>
<text font-size="" x="43.64672533333333" y="7.68">입니다</text>
<text font-size="" x="86.29345066666666" y="7.68">여기는</text>
<text font-size="" x="128.94017599999998" y="7.68">본문이</text>
</g>
<rect x="0" y="192.75592799999998" width="158.740176" height="13.768280571428573" style="fill:clear;stroke:black;"></rect>
<g transform="translate(0,192.75592799999998)">
<text font-size="" x="1" y="7.68">입니다.</text>
<text font-size="" x="44.44672533333333" y="7.68">여기는</text>
<text font-size="" x="85.49345066666666" y="7.68">본문이</text>
<text font-size="" x="126.540176" y="7.68">입니다.</text>
</g>
<rect x="0" y="206.52420857142855" width="158.740176" height="13.768280571428573" style="fill:clear;stroke:black;"></rect>
<g transform="translate(0,206.52420857142855)">
<text font-size="" x="1" y="7.68">여기는</text>
<text font-size="" x="42.84672533333333" y="7.68">본문이</text>
<text font-size="" x="84.69345066666666" y="7.68">입니다.</text>
<text font-size="" x="128.940176" y="7.68">여기는</text>
</g>
<rect x="0" y="220.2924891428571" width="158.740176" height="13.768280571428573" style="fill:clear;stroke:black;"></rect>
<g transform="translate(0,220.2924891428571)">
<text font-size="" x="1" y="7.68">본문이</text>
<text font-size="" x="42.84672533333333" y="7.68">입니다.</text>
<text font-size="" x="87.09345066666666" y="7.68">여기는</text>
<text font-size="" x="128.94017599999998" y="7.68">본문이</text>
</g>
<rect x="0" y="234.06076971428567" width="158.740176" height="13.768280571428573" style="fill:clear;stroke:black;"></rect>
<g transform="translate(0,234.06076971428567)">
<text font-size="" x="1" y="7.68">입니다.</text>
<text font-size="" x="37.199999999999996" y="7.68">여기는</text>
<text font-size="" x="71.0" y="7.68">본문이</text>
<text font-size="" x="104.8" y="7.68">입니다.</text>
</g>
<rect x="0" y="247.82905028571423" width="158.740176" height="13.768280571428573" style="fill:clear;stroke:black;"></rect>
<g transform="translate(0,247.82905028571423)">
<text font-size="" x="10" y="7.68">여기는</text>
<text font-size="" x="49.64672533333333" y="7.68">본문이</text>
<text font-size="" x="89.29345066666666" y="7.68">입니다</text>
<text font-size="" x="128.94017599999998" y="7.68">여기는</text>
</g>
<rect x="0" y="261.5973308571428" width="158.740176" height="13.768280571428573" style="fill:clear;stroke:black;"></rect>
<g transform="translate(0,261.5973308571428)">
<text font-size="" x="1" y="7.68">본문이</text>
<text font-size="" x="43.64672533333333" y="7.68">입니다</text>
<text font-size="" x="86.29345066666666" y="7.68">여기는</text>
<text font-size="" x="128.94017599999998" y="7.68">본문이</text>
</g>
<rect x="0" y="275.3656114285714" width="158.740176" height="13.768280571428573" style="fill:clear;stroke:black;"></rect>
<g transform="translate(0,275.3656114285714)">
<text font-size="" x="1" y="7.68">입니다</text>
<text font-size="" x="43.64672533333333" y="7.68">여기는</text>
<text font-size="" x="86.29345066666666" y="7.68">본문이</text>
<text font-size="" x="128.94017599999998" y="7.68">입니다</text>
</g>
<rect x="0" y="289.133892" width="158.740176" height="13.768280571428573" style="fill:clear;stroke:black;"></rect>
<g transform="translate(0,289.133892)">
<text font-size="" x="1" y="7.68">여기는</text>
<text font-size="" x="43.64672533333333" y="7.68">본문이</text>
<text font-size="" x="86.29345066666666" y="7.68">입니다</text>
<text font-size="" x="128.94017599999998" y="7.68">여기는</text>
</g>
<rect x="0" y="302.9021725714286" width="158.740176" height="13.768280571428573" style="fill:clear;stroke:black;"></rect>
<g transform="translate(0,302.9021725714286)">
<text font-size="" x="1" y="7.68">본문이</text>
<text font-size="" x="43.64672533333333" y="7.68">입니다</text>
<text font-size="" x="86.29345066666666" y="7.68">여기는</text>
<text font-size="" x="128.94017599999998" y="7.68">본문이</text>
</g>
<rect x="0" y="316.6704531428572" width="158.740176" height="13.768280571428573" style="fill:clear;stroke:black;"></rect>
<g transform="translate(0,316.6704531428572)">
<text font-size="" x="1" y="7.68">입니다</text>
<text font-size="" x="43.64672533333333" y="7.68">여기는</text>
<text font-size="" x="86.29345066666666" y="7.68">본문이</text>
<text font-size="" x="128.94017599999998" y="7.68">입니다</text>
</g>
<rect x="0" y="330.4387337142858" width="158.740176" height="13.768280571428573" style="fill:clear;stroke:black;"></rect>
<g transform="translate(0,330.4387337142858)">
<text font-size="" x="1" y="7.68">여기는</text>
<text font-size="" x="43.64672533333333" y="7.68">본문이</text>
<text font-size="" x="86.29345066666666" y="7.68">입니다</text>
<text font-size="" x="128.94017599999998" y="7.68">여기는</text>
</g>
<rect x="0" y="344.20701428571437" width="158.740176" height="13.768280571428573" style="fill:clear;stroke:black;"></rect>
<g transform="translate(0,344.20701428571437)">
<text font-size="" x="1" y="7.68">본문이</text>
<text font-size="" x="43.64672533333333" y="7.68">입니다</text>
<text font-size="" x="86.29345066666666" y="7.68">여기는</text>
<text font-size="" x="128.94017599999998" y="7.68">본문이</text>
</g>
<rect x="0" y="357.97529485714296" width="158.740176" height="13.768280571428573" style="fill:clear;stroke:black;"></rect>
<g transform="translate(0,357.97529485714296)">
<text font-size="" x="1" y="7.68">입니다</text>
<text font-size="" x="43.64672533333333" y="7.68">여기는</text>
<text font-size="" x="86.29345066666666" y="7.68">본문이</text>
<text font-size="" x="128.94017599999998" y="7.68">입니다</text>
</g>
<rect x="0" y="371.74357542857155" width="158.740176" height="13.768280571428573" style="fill:clear;stroke:black;"></rect>
<g transform="translate(0,371.74357542857155)">
<text font-size="" x="1" y="7.68">여기는</text>
<text font-size="" x="43.64672533333333" y="7.68">본문이</text>
<text font-size="" x="86.29345066666666" y="7.68">입니다</text>
<text font-size="" x="128.94017599999998" y="7.68">여기는</text>
</g>
<rect x="0" y="385.51185600000014" width="158.740176" height="13.768280571428573" style="fill:clear;stroke:black;"></rect>
<g transform="translate(0,385.51185600000014)">
<text font-size="" x="1" y="7.68">본문이</text>
<text font-size="" x="43.64672533333333" y="7.68">입니다</text>
<text font-size="" x="86.29345066666666" y="7.68">여기는</text>
<text font-size="" x="128.94017599999998" y="7.68">본문이</text>
</g>
<rect x="0" y="399.2801365714287" width="158.740176" height="13.768280571428573" style="fill:clear;stroke:black;"></rect>
<g transform="translate(0,399.2801365714287)">
<text font-size="" x="1" y="7.68">입니다.</text>
<text font-size="" x="44.44672533333333" y="7.68">여기는</text>
<text font-size="" x="85.49345066666666" y="7.68">본문이</text>
<text font-size="" x="126.540176" y="7.68">입니다.</text>
</g>
<rect x="0" y="413.0484171428573" width="158.740176" height="13.768280571428573" style="fill:clear;stroke:black;"></rect>
<g transform="translate(0,413.0484171428573)">
<text font-size="" x="1" y="7.68">여기는</text>
<text font-size="" x="42.84672533333333" y="7.68">본문이</text>
<text font-size="" x="84.69345066666666" y="7.68">입니다.</text>
<text font-size="" x="128.940176" y="7.68">여기는</text>
</g>
<rect x="0" y="426.8166977142859" width="158.740176" height="13.768280571428573" style="fill:clear;stroke:black;"></rect>
<g transform="translate(0,426.8166977142859)">
<text font-size="" x="1" y="7.68">본문이</text>
<text font-size="" x="42.84672533333333" y="7.68">입니다.</text>
<text font-size="" x="87.09345066666666" y="7.68">여기는</text>
<text font-size="" x="128.94017599999998" y="7.68">본문이</text>
</g>
<rect x="0" y="440.5849782857145" width="158.740176" height="13.768280571428573" style="fill:clear;stroke:black;"></rect>
<g transform="translate(0,440.5849782857145)">
<text font-size="" x="1" y="7.68">입니다.</text>
<text font-size="" x="37.199999999999996" y="7.68">여기는</text>
<text font-size="" x="71.0" y="7.68">본문이</text>
<text font-size="" x="104.8" y="7.68">입니다.</text>
</g>
</g>
<rect x="514.488249" y="0" width="158.740176" height="481.88982000000004" style="fill:white;stroke:black;"></rect>
<g transform="translate(514.488249,0)">
<rect x="0" y="0" width="158.740176" height="13.768280571428573" style="fill:clear;stroke:black;"></rect>
<g transform="translate(0,0)">
</g>
<rect x="0" y="13.768280571428573" width="158.740176" height="13.768280571428573" style="fill:clear;stroke:black;"></rect>
<g transform="translate(0,13.768280571428573)">
</g>
<rect x="0" y="27.536561142857146" width="158.740176" height="13.768280571428573" style="fill:clear;stroke:black;"></rect>
<g transform="translate(0,27.536561142857146)">
</g>
<rect x="0" y="41.304841714285715" width="158.740176" height="13.768280571428573" style="fill:clear;stroke:black;"></rect>
<g transform="translate(0,41.304841714285715)">
</g>
<rect x="0" y="55.07312228571429" width="158.740176" height="13.768280571428573" style="fill:clear;stroke:black;"></rect>
<g transform="translate(0,55.07312228571429)">
</g>
<rect x="0" y="68.84140285714287" width="158.740176" height="13.768280571428573" style="fill:clear;stroke:black;"></rect>
<g transform="translate(0,68.84140285714287)">
</g>
<rect x="0" y="82.60968342857144" width="158.740176" height="13.768280571428573" style="fill:clear;stroke:black;"></rect>
<g transform="translate(0,82.60968342857144)">
</g>
<rect x="0" y="96.37796400000002" width="158.740176" height="13.768280571428573" style="fill:clear;stroke:black;"></rect>
<g transform="translate(0,96.37796400000002)">
</g>
<rect x="0" y="110.1462445714286" width="158.740176" height="13.768280571428573" style="fill:clear;stroke:black;"></rect>
<g transform="translate(0,110.1462445714286)">
</g>
<rect x="0" y="123.91452514285717" width="158.740176" height="13.768280571428573" style="fill:clear;stroke:black;"></rect>
<g transform="translate(0,123.91452514285717)">
<text font-size="" x="10" y="7.68">여기는</text>
<text font-size="" x="49.64672533333333" y="7.68">본문이</text>
<text font-size="" x="89.29345066666666" y="7.68">입니다</text>
<text font-size="" x="128.94017599999998" y="7.68">본문을</text>
</g>
<rect x="0" y="137.68280571428573" width="158.740176" height="13.768280571428573" style="fill:clear;stroke:black;"></rect>
<g transform="translate(0,137.68280571428573)">
<text font-size="" x="1" y="7.68">여기에</text>
<text font-size="" x="34.78504399999999" y="7.68">입력</text>
<text font-size="" x="58.97008799999999" y="7.68">하시면</text>
<text font-size="" x="92.75513199999997" y="7.68">됩니다.</text>
<text font-size="" x="128.94017599999995" y="7.68">여기는</text>
</g>
<rect x="0" y="151.4510862857143" width="158.740176" height="13.768280571428573" style="fill:clear;stroke:black;"></rect>
<g transform="translate(0,151.4510862857143)">
<text font-size="" x="1" y="7.68">본문이</text>
<text font-size="" x="43.64672533333333" y="7.68">입니다</text>
<text font-size="" x="86.29345066666666" y="7.68">여기는</text>
<text font-size="" x="128.94017599999998" y="7.68">본문이</text>
</g>
<rect x="0" y="165.21936685714286" width="158.740176" height="13.768280571428573" style="fill:clear;stroke:black;"></rect>
<g transform="translate(0,165.21936685714286)">
<text font-size="" x="1" y="7.68">입니다</text>
<text font-size="" x="43.64672533333333" y="7.68">여기는</text>
<text font-size="" x="86.29345066666666" y="7.68">본문이</text>
<text font-size="" x="128.94017599999998" y="7.68">입니다</text>
</g>
<rect x="0" y="178.98764742857142" width="158.740176" height="13.768280571428573" style="fill:clear;stroke:black;"></rect>
<g transform="translate(0,178.98764742857142)">
<text font-size="" x="1" y="7.68">여기는</text>
<text font-size="" x="43.64672533333333" y="7.68">본문이</text>
<text font-size="" x="86.29345066666666" y="7.68">입니다</text>
<text font-size="" x="128.94017599999998" y="7.68">여기는</text>
</g>
<rect x="0" y="192.75592799999998" width="158.740176" height="13.768280571428573" style="fill:clear;stroke:black;"></rect>
<g transform="translate(0,192.75592799999998)">
<text font-size="" x="1" y="7.68">본문이</text>
<text font-size="" x="43.64672533333333" y="7.68">입니다</text>
<text font-size="" x="86.29345066666666" y="7.68">여기는</text>
<text font-size="" x="128.94017599999998" y="7.68">본문이</text>
</g>
<rect x="0" y="206.52420857142855" width="158.740176" height="13.768280571428573" style="fill:clear;stroke:black;"></rect>
<g transform="translate(0,206.52420857142855)">
<text font-size="" x="1" y="7.68">입니다</text>
<text font-size="" x="43.64672533333333" y="7.68">여기는</text>
<text font-size="" x="86.29345066666666" y="7.68">본문이</text>
<text font-size="" x="128.94017599999998" y="7.68">입니다</text>
</g>
<rect x="0" y="220.2924891428571" width="158.740176" height="13.768280571428573" style="fill:clear;stroke:black;"></rect>
<g transform="translate(0,220.2924891428571)">
<text font-size="" x="1" y="7.68">여기는</text>
<text font-size="" x="43.64672533333333" y="7.68">본문이</text>
<text font-size="" x="86.29345066666666" y="7.68">입니다</text>
<text font-size="" x="128.94017599999998" y="7.68">여기는</text>
</g>
<rect x="0" y="234.06076971428567" width="158.740176" height="13.768280571428573" style="fill:clear;stroke:black;"></rect>
<g transform="translate(0,234.06076971428567)">
<text font-size="" x="1" y="7.68">본문이</text>
<text font-size="" x="43.64672533333333" y="7.68">입니다</text>
<text font-size="" x="86.29345066666666" y="7.68">여기는</text>
<text font-size="" x="128.94017599999998" y="7.68">본문이</text>
</g>
<rect x="0" y="247.82905028571423" width="158.740176" height="13.768280571428573" style="fill:clear;stroke:black;"></rect>
<g transform="translate(0,247.82905028571423)">
<text font-size="" x="1" y="7.68">입니다</text>
<text font-size="" x="43.64672533333333" y="7.68">여기는</text>
<text font-size="" x="86.29345066666666" y="7.68">본문이</text>
<text font-size="" x="128.94017599999998" y="7.68">입니다</text>
</g>
<rect x="0" y="261.5973308571428" width="158.740176" height="13.768280571428573" style="fill:clear;stroke:black;"></rect>
<g transform="translate(0,261.5973308571428)">
<text font-size="" x="1" y="7.68">여기는</text>
<text font-size="" x="43.64672533333333" y="7.68">본문이</text>
<text font-size="" x="86.29345066666666" y="7.68">입니다</text>
<text font-size="" x="128.94017599999998" y="7.68">여기는</text>
</g>
<rect x="0" y="275.3656114285714" width="158.740176" height="13.768280571428573" style="fill:clear;stroke:black;"></rect>
<g transform="translate(0,275.3656114285714)">
<text font-size="" x="1" y="7.68">본문이</text>
<text font-size="" x="43.64672533333333" y="7.68">입니다</text>
<text font-size="" x="86.29345066666666" y="7.68">여기는</text>
<text font-size="" x="128.94017599999998" y="7.68">본문이</text>
</g>
<rect x="0" y="289.133892" width="158.740176" height="13.768280571428573" style="fill:clear;stroke:black;"></rect>
<g transform="translate(0,289.133892)">
<text font-size="" x="1" y="7.68">입니다.</text>
<text font-size="" x="44.44672533333333" y="7.68">여기는</text>
<text font-size="" x="85.49345066666666" y="7.68">본문이</text>
<text font-size="" x="126.540176" y="7.68">입니다.</text>
</g>
<rect x="0" y="302.9021725714286" width="158.740176" height="13.768280571428573" style="fill:clear;stroke:black;"></rect>
<g transform="translate(0,302.9021725714286)">
<text font-size="" x="1" y="7.68">여기는</text>
<text font-size="" x="42.84672533333333" y="7.68">본문이</text>
<text font-size="" x="84.69345066666666" y="7.68">입니다.</text>
<text font-size="" x="128.940176" y="7.68">여기는</text>
</g>
<rect x="0" y="316.6704531428572" width="158.740176" height="13.768280571428573" style="fill:clear;stroke:black;"></rect>
<g transform="translate(0,316.6704531428572)">
<text font-size="" x="1" y="7.68">본문이</text>
<text font-size="" x="42.84672533333333" y="7.68">입니다.</text>
<text font-size="" x="87.09345066666666" y="7.68">여기는</text>
<text font-size="" x="128.94017599999998" y="7.68">본문이</text>
</g>
<rect x="0" y="330.4387337142858" width="158.740176" height="13.768280571428573" style="fill:clear;stroke:black;"></rect>
<g transform="translate(0,330.4387337142858)">
<text font-size="" x="1" y="7.68">입니다.</text>
<text font-size="" x="37.199999999999996" y="7.68">여기는</text>
<text font-size="" x="71.0" y="7.68">본문이</text>
<text font-size="" x="104.8" y="7.68">입니다.</text>
</g>
<rect x="0" y="344.20701428571437" width="158.740176" height="13.768280571428573" style="fill:clear;stroke:black;"></rect>
<g transform="translate(0,344.20701428571437)">
</g>
<rect x="0" y="357.97529485714296" width="158.740176" height="13.768280571428573" style="fill:clear;stroke:black;"></rect>
<g transform="translate(0,357.97529485714296)">
</g>
<rect x="0" y="371.74357542857155" width="158.740176" height="13.768280571428573" style="fill:clear;stroke:black;"></rect>
<g transform="translate(0,371.74357542857155)">
</g>
<rect x="0" y="385.51185600000014" width="158.740176" height="13.768280571428573" style="fill:clear;stroke:black;"></rect>
<g transform="translate(0,385.51185600000014)">
</g>
<rect x="0" y="399.2801365714287" width="158.740176" height="13.768280571428573" style="fill:clear;stroke:black;"></rect>
<g transform="translate(0,399.2801365714287)">
</g>
<rect x="0" y="413.0484171428573" width="158.740176" height="13.768280571428573" style="fill:clear;stroke:black;"></rect>
<g transform="translate(0,413.0484171428573)">
</g>
<rect x="0" y="426.8166977142859" width="158.740176" height="13.768280571428573" style="fill:clear;stroke:black;"></rect>
<g transform="translate(0,426.8166977142859)">
</g>
<rect x="0" y="440.5849782857145" width="158.740176" height="13.768280571428573" style="fill:clear;stroke:black;"></rect>
<g transform="translate(0,440.5849782857145)">
</g>
</g>
</g>
</svg>
